<svg xmlns="http://www.w3.org/2000/svg" xmlns:xlink="http://www.w3.org/1999/xlink" contentStyleType="text/css" data-diagram-type="CLASS" height="817px" preserveAspectRatio="none" style="width:833px;height:817px;background:#FFFFFF;" version="1.1" viewBox="0 0 833 817" width="833px" zoomAndPan="magnify"><defs/><g><!--class CRFItem--><a href="" target="_top" title="None" xlink:actuate="onRequest" xlink:href="" xlink:show="new" xlink:title="None" xlink:type="simple"><g class="entity" data-entity="CRFItem" data-source-line="1" data-uid="ent0002" id="entity_CRFItem"><rect fill="#F1F1F1" height="292.4531" rx="2.5" ry="2.5" style="stroke:#181818;stroke-width:0.5;" width="261.9629" x="301.42" y="343.86"/><ellipse cx="398.439" cy="359.86" fill="#ADD1B2" rx="11" ry="11" style="stroke:#181818;stroke-width:1;"/><path d="M401.4078,365.5006 Q400.8297,365.7975 400.189,365.9381 Q399.5484,366.0944 398.8453,366.0944 Q396.3453,366.0944 395.0172,364.4538 Q393.7047,362.7975 393.7047,359.6725 Q393.7047,356.5475 395.0172,354.8913 Q396.3453,353.235 398.8453,353.235 Q399.5484,353.235 400.189,353.3913 Q400.8453,353.5475 401.4078,353.8444 L401.4078,356.5631 Q400.7828,355.985 400.189,355.7194 Q399.5953,355.4381 398.9703,355.4381 Q397.6265,355.4381 396.939,356.5163 Q396.2515,357.5788 396.2515,359.6725 Q396.2515,361.7663 396.939,362.8444 Q397.6265,363.9069 398.9703,363.9069 Q399.5953,363.9069 400.189,363.6413 Q400.7828,363.36 401.4078,362.7819 L401.4078,365.5006 Z " fill="#000000"/><text fill="#000000" font-family="sans-serif" font-size="14" lengthAdjust="spacing" textLength="59.4248" x="418.939" y="364.7067">CRFItem</text><line style="stroke:#181818;stroke-width:0.5;" x1="302.42" x2="562.3829" y1="375.86" y2="375.86"/><text fill="#000000" font-family="sans-serif" font-size="14" lengthAdjust="spacing" textLength="93.5088" x="307.42" y="392.8551">name : string</text><text fill="#000000" font-family="sans-serif" font-size="14" lengthAdjust="spacing" textLength="151.5869" x="307.42" y="409.152">variableName : string</text><text fill="#000000" font-family="sans-serif" font-size="14" lengthAdjust="spacing" textLength="214.2178" x="307.42" y="425.4489">dataElementConceptId : string</text><text fill="#000000" font-family="sans-serif" font-size="14" lengthAdjust="spacing" textLength="145.2295" x="307.42" y="441.7457">questionText : string</text><text fill="#000000" font-family="sans-serif" font-size="14" lengthAdjust="spacing" textLength="105.0273" x="307.42" y="458.0426">prompt : string</text><text fill="#000000" font-family="sans-serif" font-size="14" lengthAdjust="spacing" textLength="214.1357" x="307.42" y="474.3395">completionInstructions : string</text><text fill="#000000" font-family="sans-serif" font-size="14" lengthAdjust="spacing" textLength="157.5547" x="307.42" y="490.6364">orderNumber : integer</text><text fill="#000000" font-family="sans-serif" font-size="14" lengthAdjust="spacing" textLength="204.0117" x="307.42" y="506.9332">mandatoryVariable : boolean</text><text fill="#000000" font-family="sans-serif" font-size="14" lengthAdjust="spacing" textLength="246.9072" x="307.42" y="523.2301">dataType : CRFItemDataTypeEnum</text><text fill="#000000" font-family="sans-serif" font-size="14" lengthAdjust="spacing" textLength="108.3633" x="307.42" y="539.527">length : integer</text><text fill="#000000" font-family="sans-serif" font-size="14" lengthAdjust="spacing" textLength="176.2578" x="307.42" y="555.8239">significantDigits : integer</text><text fill="#000000" font-family="sans-serif" font-size="14" lengthAdjust="spacing" textLength="168.9775" x="307.42" y="572.1207">displayHidden : boolean</text><text fill="#000000" font-family="sans-serif" font-size="14" lengthAdjust="spacing" textLength="180.291" x="307.42" y="588.4176">derivedVariable : boolean</text><text fill="#000000" font-family="sans-serif" font-size="14" lengthAdjust="spacing" textLength="204.3672" x="307.42" y="604.7145">derivationDescription : string</text><text fill="#000000" font-family="sans-serif" font-size="14" lengthAdjust="spacing" textLength="249.9629" x="307.42" y="621.0114">selectionType : SelectionTypeEnum</text><line style="stroke:#181818;stroke-width:0.5;" x1="302.42" x2="562.3829" y1="628.3131" y2="628.3131"/></g></a><!--class SDTMTarget--><a href="" target="_top" title="None" xlink:actuate="onRequest" xlink:href="" xlink:show="new" xlink:title="None" xlink:type="simple"><g class="entity" data-entity="SDTMTarget" data-source-line="18" data-uid="ent0003" id="entity_SDTMTarget"><rect fill="#F1F1F1" height="96.8906" rx="2.5" ry="2.5" style="stroke:#181818;stroke-width:0.5;" width="210.8096" x="7" y="713.31"/><ellipse cx="65.0679" cy="729.31" fill="#ADD1B2" rx="11" ry="11" style="stroke:#181818;stroke-width:1;"/><path d="M68.0366,734.9506 Q67.4585,735.2475 66.8179,735.3881 Q66.1772,735.5444 65.4741,735.5444 Q62.9741,735.5444 61.646,733.9038 Q60.3335,732.2475 60.3335,729.1225 Q60.3335,725.9975 61.646,724.3413 Q62.9741,722.685 65.4741,722.685 Q66.1772,722.685 66.8179,722.8413 Q67.4741,722.9975 68.0366,723.2944 L68.0366,726.0131 Q67.4116,725.435 66.8179,725.1694 Q66.2241,724.8881 65.5991,724.8881 Q64.2554,724.8881 63.5679,725.9663 Q62.8804,727.0288 62.8804,729.1225 Q62.8804,731.2163 63.5679,732.2944 Q64.2554,733.3569 65.5991,733.3569 Q66.2241,733.3569 66.8179,733.0913 Q67.4116,732.81 68.0366,732.2319 L68.0366,734.9506 Z " fill="#000000"/><text fill="#000000" font-family="sans-serif" font-size="14" lengthAdjust="spacing" textLength="86.1738" x="85.5679" y="734.1567">SDTMTarget</text><line style="stroke:#181818;stroke-width:0.5;" x1="8" x2="216.8096" y1="745.31" y2="745.31"/><text fill="#000000" font-family="sans-serif" font-size="14" lengthAdjust="spacing" textLength="165.8877" x="13" y="762.3051">sdtmAnnotation : string</text><text fill="#000000" font-family="sans-serif" font-size="14" lengthAdjust="spacing" textLength="198.8096" x="13" y="778.602">sdtmVariables : string  [0..*]</text><text fill="#000000" font-family="sans-serif" font-size="14" lengthAdjust="spacing" textLength="195.0703" x="13" y="794.8989">sdtmTargetMapping : string</text><line style="stroke:#181818;stroke-width:0.5;" x1="8" x2="216.8096" y1="802.2006" y2="802.2006"/></g></a><!--class PrepopulatedValue--><a href="" target="_top" title="None" xlink:actuate="onRequest" xlink:href="" xlink:show="new" xlink:title="None" xlink:type="simple"><g class="entity" data-entity="PrepopulatedValue" data-source-line="24" data-uid="ent0005" id="entity_PrepopulatedValue"><rect fill="#F1F1F1" height="80.5938" rx="2.5" ry="2.5" style="stroke:#181818;stroke-width:0.5;" width="165.0137" x="252.9" y="721.46"/><ellipse cx="267.9" cy="737.46" fill="#ADD1B2" rx="11" ry="11" style="stroke:#181818;stroke-width:1;"/><path d="M270.8688,743.1006 Q270.2906,743.3975 269.65,743.5381 Q269.0094,743.6944 268.3063,743.6944 Q265.8063,743.6944 264.4781,742.0538 Q263.1656,740.3975 263.1656,737.2725 Q263.1656,734.1475 264.4781,732.4913 Q265.8063,730.835 268.3063,730.835 Q269.0094,730.835 269.65,730.9913 Q270.3063,731.1475 270.8688,731.4444 L270.8688,734.1631 Q270.2438,733.585 269.65,733.3194 Q269.0563,733.0381 268.4313,733.0381 Q267.0875,733.0381 266.4,734.1163 Q265.7125,735.1788 265.7125,737.2725 Q265.7125,739.3663 266.4,740.4444 Q267.0875,741.5069 268.4313,741.5069 Q269.0563,741.5069 269.65,741.2413 Q270.2438,740.96 270.8688,740.3819 L270.8688,743.1006 Z " fill="#000000"/><text fill="#000000" font-family="sans-serif" font-size="14" lengthAdjust="spacing" textLength="133.0137" x="281.9" y="742.3067">PrepopulatedValue</text><line style="stroke:#181818;stroke-width:0.5;" x1="253.9" x2="416.9137" y1="753.46" y2="753.46"/><text fill="#000000" font-family="sans-serif" font-size="14" lengthAdjust="spacing" textLength="92.0459" x="258.9" y="770.4551">value : string</text><text fill="#000000" font-family="sans-serif" font-size="14" lengthAdjust="spacing" textLength="122.6436" x="258.9" y="786.752">conceptId : string</text><line style="stroke:#181818;stroke-width:0.5;" x1="253.9" x2="416.9137" y1="794.0538" y2="794.0538"/></g></a><!--class ListValue--><a href="" target="_top" title="None" xlink:actuate="onRequest" xlink:href="" xlink:show="new" xlink:title="None" xlink:type="simple"><g class="entity" data-entity="ListValue" data-source-line="29" data-uid="ent0007" id="entity_ListValue"><rect fill="#F1F1F1" height="80.5938" rx="2.5" ry="2.5" style="stroke:#181818;stroke-width:0.5;" width="155.0488" x="452.88" y="721.46"/><ellipse cx="494.4498" cy="737.46" fill="#ADD1B2" rx="11" ry="11" style="stroke:#181818;stroke-width:1;"/><path d="M497.4185,743.1006 Q496.8404,743.3975 496.1998,743.5381 Q495.5592,743.6944 494.856,743.6944 Q492.356,743.6944 491.0279,742.0538 Q489.7154,740.3975 489.7154,737.2725 Q489.7154,734.1475 491.0279,732.4913 Q492.356,730.835 494.856,730.835 Q495.5592,730.835 496.1998,730.9913 Q496.856,731.1475 497.4185,731.4444 L497.4185,734.1631 Q496.7935,733.585 496.1998,733.3194 Q495.606,733.0381 494.981,733.0381 Q493.6373,733.0381 492.9498,734.1163 Q492.2623,735.1788 492.2623,737.2725 Q492.2623,739.3663 492.9498,740.4444 Q493.6373,741.5069 494.981,741.5069 Q495.606,741.5069 496.1998,741.2413 Q496.7935,740.96 497.4185,740.3819 L497.4185,743.1006 Z " fill="#000000"/><text fill="#000000" font-family="sans-serif" font-size="14" lengthAdjust="spacing" textLength="64.0049" x="514.3542" y="742.3067">ListValue</text><line style="stroke:#181818;stroke-width:0.5;" x1="453.88" x2="606.9288" y1="753.46" y2="753.46"/><text fill="#000000" font-family="sans-serif" font-size="14" lengthAdjust="spacing" textLength="143.0488" x="458.88" y="770.4551">displayValue : string</text><text fill="#000000" font-family="sans-serif" font-size="14" lengthAdjust="spacing" textLength="92.0459" x="458.88" y="786.752">value : string</text><line style="stroke:#181818;stroke-width:0.5;" x1="453.88" x2="606.9288" y1="794.0538" y2="794.0538"/></g></a><!--class CodeList--><a href="" target="_top" title="None" xlink:actuate="onRequest" xlink:href="" xlink:show="new" xlink:title="None" xlink:type="simple"><g class="entity" data-entity="CodeList" data-source-line="34" data-uid="ent0009" id="entity_CodeList"><rect fill="#F1F1F1" height="96.8906" rx="2.5" ry="2.5" style="stroke:#181818;stroke-width:0.5;" width="183.835" x="642.49" y="713.31"/><ellipse cx="700.0007" cy="729.31" fill="#ADD1B2" rx="11" ry="11" style="stroke:#181818;stroke-width:1;"/><path d="M702.9695,734.9506 Q702.3914,735.2475 701.7507,735.3881 Q701.1101,735.5444 700.407,735.5444 Q697.907,735.5444 696.5789,733.9038 Q695.2664,732.2475 695.2664,729.1225 Q695.2664,725.9975 696.5789,724.3413 Q697.907,722.685 700.407,722.685 Q701.1101,722.685 701.7507,722.8413 Q702.407,722.9975 702.9695,723.2944 L702.9695,726.0131 Q702.3445,725.435 701.7507,725.1694 Q701.157,724.8881 700.532,724.8881 Q699.1882,724.8881 698.5007,725.9663 Q697.8132,727.0288 697.8132,729.1225 Q697.8132,731.2163 698.5007,732.2944 Q699.1882,733.3569 700.532,733.3569 Q701.157,733.3569 701.7507,733.0913 Q702.3445,732.81 702.9695,732.2319 L702.9695,734.9506 Z " fill="#000000"/><text fill="#000000" font-family="sans-serif" font-size="14" lengthAdjust="spacing" textLength="60.3135" x="720.5007" y="734.1567">CodeList</text><line style="stroke:#181818;stroke-width:0.5;" x1="643.49" x2="825.325" y1="745.31" y2="745.31"/><text fill="#000000" font-family="sans-serif" font-size="14" lengthAdjust="spacing" textLength="171.835" x="648.49" y="762.3051">submissionValue : string</text><text fill="#000000" font-family="sans-serif" font-size="14" lengthAdjust="spacing" textLength="122.6436" x="648.49" y="778.602">conceptId : string</text><text fill="#000000" font-family="sans-serif" font-size="14" lengthAdjust="spacing" textLength="60.3066" x="648.49" y="794.8989">href : uri</text><line style="stroke:#181818;stroke-width:0.5;" x1="643.49" x2="825.325" y1="802.2006" y2="802.2006"/></g></a><!--class CRFGroup--><a href="" target="_top" title="None" xlink:actuate="onRequest" xlink:href="" xlink:show="new" xlink:title="None" xlink:type="simple"><g class="entity" data-entity="CRFGroup" data-source-line="40" data-uid="ent0011" id="entity_CRFGroup"><rect fill="#F1F1F1" height="259.8594" rx="2.5" ry="2.5" style="stroke:#181818;stroke-width:0.5;" width="381.3867" x="241.71" y="7"/><ellipse cx="392.9107" cy="23" fill="#ADD1B2" rx="11" ry="11" style="stroke:#181818;stroke-width:1;"/><path d="M395.8794,28.6406 Q395.3013,28.9375 394.6607,29.0781 Q394.0201,29.2344 393.3169,29.2344 Q390.8169,29.2344 389.4888,27.5938 Q388.1763,25.9375 388.1763,22.8125 Q388.1763,19.6875 389.4888,18.0313 Q390.8169,16.375 393.3169,16.375 Q394.0201,16.375 394.6607,16.5313 Q395.3169,16.6875 395.8794,16.9844 L395.8794,19.7031 Q395.2544,19.125 394.6607,18.8594 Q394.0669,18.5781 393.4419,18.5781 Q392.0982,18.5781 391.4107,19.6563 Q390.7232,20.7188 390.7232,22.8125 Q390.7232,24.9063 391.4107,25.9844 Q392.0982,27.0469 393.4419,27.0469 Q394.0669,27.0469 394.6607,26.7813 Q395.2544,26.5 395.8794,25.9219 L395.8794,28.6406 Z " fill="#000000"/><text fill="#000000" font-family="sans-serif" font-size="14" lengthAdjust="spacing" textLength="70.4854" x="413.4107" y="27.8467">CRFGroup</text><line style="stroke:#181818;stroke-width:0.5;" x1="242.71" x2="622.0967" y1="39" y2="39"/><text fill="#000000" font-family="sans-serif" font-size="14" lengthAdjust="spacing" textLength="137.9971" x="247.71" y="55.9951">packageDate : date</text><text fill="#000000" font-family="sans-serif" font-size="14" lengthAdjust="spacing" textLength="240.7754" x="247.71" y="72.292">packageType : PackageTypeEnum</text><text fill="#000000" font-family="sans-serif" font-size="14" lengthAdjust="spacing" textLength="182.2803" x="247.71" y="88.5889">crfSpecializationId : string</text><text fill="#000000" font-family="sans-serif" font-size="14" lengthAdjust="spacing" textLength="131.0859" x="247.71" y="104.8857">shortName : string</text><text fill="#000000" font-family="sans-serif" font-size="14" lengthAdjust="spacing" textLength="116.1494" x="247.71" y="121.1826">standard : string</text><text fill="#000000" font-family="sans-serif" font-size="14" lengthAdjust="spacing" textLength="202.918" x="247.71" y="137.4795">standardStartVersion : string</text><text fill="#000000" font-family="sans-serif" font-size="14" lengthAdjust="spacing" textLength="195.3232" x="247.71" y="153.7764">standardEndVersion : string</text><text fill="#000000" font-family="sans-serif" font-size="14" lengthAdjust="spacing" textLength="369.3867" x="247.71" y="170.0732">implementationOption : ImplementationOptionEnum</text><text fill="#000000" font-family="sans-serif" font-size="14" lengthAdjust="spacing" textLength="113.0732" x="247.71" y="186.3701">scenario : string</text><text fill="#000000" font-family="sans-serif" font-size="14" lengthAdjust="spacing" textLength="171.8213" x="247.71" y="202.667">categories : string  [0..*]</text><text fill="#000000" font-family="sans-serif" font-size="14" lengthAdjust="spacing" textLength="106.2373" x="247.71" y="218.9639">domain : string</text><text fill="#000000" font-family="sans-serif" font-size="14" lengthAdjust="spacing" textLength="201.2568" x="247.71" y="235.2607">biomedicalConceptId : string</text><text fill="#000000" font-family="sans-serif" font-size="14" lengthAdjust="spacing" textLength="254.0303" x="247.71" y="251.5576">sdtmDatasetSpecializationId : string</text><line style="stroke:#181818;stroke-width:0.5;" x1="242.71" x2="622.0967" y1="258.8594" y2="258.8594"/></g></a><!--link CRFItem to SDTMTarget--><g class="link" data-entity-1="CRFItem" data-entity-2="SDTMTarget" data-source-line="23" data-uid="lnk4" id="link_CRFItem_SDTMTarget"><path codeLine="23" d="M292.1528,609.2817 C246.0628,648.1117 210.4277,678.1431 173.7077,709.0931" fill="none" id="CRFItem-SDTMTarget" style="stroke:#181818;stroke-width:1;"/><polygon fill="#181818" points="301.33,601.55,294.1642,602.3567,292.1528,609.2817,299.3186,608.4749,301.33,601.55" style="stroke:#181818;stroke-width:1;"/><polygon fill="#181818" points="169.12,712.96,178.5795,710.2182,172.9431,709.7376,173.4237,704.1012,169.12,712.96" style="stroke:#181818;stroke-width:1;"/><text fill="#000000" font-family="sans-serif" font-size="13" lengthAdjust="spacing" textLength="75.3848" x="217.4" y="679.3769">sdtmTarget</text><text fill="#000000" font-family="sans-serif" font-size="13" lengthAdjust="spacing" textLength="24.8066" x="151.4648" y="702.1197">0..1</text></g><!--link CRFItem to PrepopulatedValue--><g class="link" data-entity-1="CRFItem" data-entity-2="PrepopulatedValue" data-source-line="28" data-uid="lnk6" id="link_CRFItem_PrepopulatedValue"><path codeLine="28" d="M368.8778,647.7324 C365.1778,657.7924 365.74,656.54 362.4,666.31 C356.34,684.06 352.0951,698.2059 347.4151,715.1759" fill="none" id="CRFItem-PrepopulatedValue" style="stroke:#181818;stroke-width:1;"/><polygon fill="#181818" points="373.02,636.47,367.1947,640.7205,368.8778,647.7324,374.703,643.482,373.02,636.47" style="stroke:#181818;stroke-width:1;"/><polygon fill="#181818" points="345.82,720.96,352.0688,713.3473,347.1493,716.1399,344.3567,711.2205,345.82,720.96" style="stroke:#181818;stroke-width:1;"/><text fill="#000000" font-family="sans-serif" font-size="13" lengthAdjust="spacing" textLength="123.9253" x="363.4" y="679.3769">prepopulatedValue</text><text fill="#000000" font-family="sans-serif" font-size="13" lengthAdjust="spacing" textLength="24.8066" x="321.6314" y="710.3402">0..1</text></g><!--link CRFItem to ListValue--><g class="link" data-entity-1="CRFItem" data-entity-2="ListValue" data-source-line="33" data-uid="lnk8" id="link_CRFItem_ListValue"><path codeLine="33" d="M489.3757,647.8494 C500.7157,679.0794 505.6413,692.6106 513.9713,715.5406" fill="none" id="CRFItem-ListValue" style="stroke:#181818;stroke-width:1;"/><polygon fill="#181818" points="485.28,636.57,483.568,643.5749,489.3757,647.8494,491.0877,640.8445,485.28,636.57" style="stroke:#181818;stroke-width:1;"/><polygon fill="#181818" points="516.02,721.18,516.7066,711.3551,514.3128,716.4805,509.1874,714.0867,516.02,721.18" style="stroke:#181818;stroke-width:1;"/><text fill="#000000" font-family="sans-serif" font-size="13" lengthAdjust="spacing" textLength="58.2334" x="503.4" y="679.3769">valueList</text><text fill="#000000" font-family="sans-serif" font-size="13" lengthAdjust="spacing" textLength="23.0356" x="488.7358" y="710.2952">0..*</text></g><!--link CRFItem to CodeList--><g class="link" data-entity-1="CRFItem" data-entity-2="CodeList" data-source-line="39" data-uid="lnk10" id="link_CRFItem_CodeList"><path codeLine="39" d="M572.5008,616.1827 C613.8908,653.1427 643.8747,679.9136 676.5847,709.1236" fill="none" id="CRFItem-CodeList" style="stroke:#181818;stroke-width:1;"/><polygon fill="#181818" points="563.55,608.19,565.3611,615.17,572.5008,616.1827,570.6896,609.2028,563.55,608.19" style="stroke:#181818;stroke-width:1;"/><polygon fill="#181818" points="681.06,713.12,677.0113,704.1418,677.3306,709.7896,671.6827,710.1089,681.06,713.12" style="stroke:#181818;stroke-width:1;"/><text fill="#000000" font-family="sans-serif" font-size="13" lengthAdjust="spacing" textLength="50.4448" x="646.4" y="679.3769">codelist</text><text fill="#000000" font-family="sans-serif" font-size="13" lengthAdjust="spacing" textLength="24.8066" x="647.9272" y="702.3022">0..1</text></g><!--link CRFGroup to CRFItem--><g class="link" data-entity-1="CRFGroup" data-entity-2="CRFItem" data-source-line="55" data-uid="lnk12" id="link_CRFGroup_CRFItem"><path codeLine="55" d="M432.4,279.19 C432.4,304.02 432.4,312.19 432.4,337.5" fill="none" id="CRFGroup-CRFItem" style="stroke:#181818;stroke-width:1;"/><polygon fill="#181818" points="432.4,267.19,428.4,273.19,432.4,279.19,436.4,273.19,432.4,267.19" style="stroke:#181818;stroke-width:1;"/><polygon fill="#181818" points="432.4,343.5,436.4,334.5,432.4,338.5,428.4,334.5,432.4,343.5" style="stroke:#181818;stroke-width:1;"/><text fill="#000000" font-family="sans-serif" font-size="13" lengthAdjust="spacing" textLength="36.1436" x="433.4" y="309.9269">items</text><text fill="#000000" font-family="sans-serif" font-size="13" lengthAdjust="spacing" textLength="23.0356" x="408.8079" y="332.6252">1..*</text></g><!--SRC=[bLLDRnen4BtpAwmz8YLghZbKge2qI0sD0kA2E1XxM4RrLsqlAaNyzzhi4jYozgfSi3qFptlZDmCJr3bIZDvVfXvaGLQhuqmhEAtNv3WWuNFS8WX-8efA8C_4UOkg9AGLsrEBT2DWbi5mwkb4W0JbHrenC7xAKzXV5JYFMYtWjqzXZDNI9ACi10N4EwOg02eMbow5rfQ3dLLo0pP0K7aemwgDaLG52TeUbetOWDneBO2g3gMBWuc0fgpZvcIYAlaFM80g_IwPrM6fS8kCAZ_64hrB8Zaw8-ZX6t8EAiqDBEw1zsk8E1gBDWR7B9guJ9NFWO1pWHlLyzjze_aqOBNJvkF5wuBQ4dp6R8vx-KKfxMasRq1TbDo-xUhJu-DmVGUjixvIOoBgvixJuEh_uSF3PrA42vwADjTdKbmlAIvgtYmORIf1VIogg20ZQX_ZQSDsz4IIM4VQmC_SdLveVaVd- -Wr1bhcMDv9w6GuB5eP0xFpx-BH1wEHvlL1nWJLHg9pmG3B_wxSBM1dOHjYbSLSIQ-40byMDg95z_tbgzMLoT0rbFsa9OHUZrHv_29TWAP9tgwxZh70x7PkW24L-EVS0sbvRgUjpqrUv-FeihmlFlVK-YLObskv1ZjHl0U9SG37QN-c_-CoGAOTnntw7GCLEbid7psKjzGM-_gUQqanoN63MW8FqrNq_YN5tezZt87FFKnjhyOgjR-UweRuS5sm5uQ5A_u2]--></g></svg>