<svg xmlns="http://www.w3.org/2000/svg" xmlns:xlink="http://www.w3.org/1999/xlink" contentStyleType="text/css" data-diagram-type="CLASS" height="464px" preserveAspectRatio="none" style="width:555px;height:464px;background:#FFFFFF;" version="1.1" viewBox="0 0 555 464" width="555px" zoomAndPan="magnify"><defs/><g><!--class BiomedicalConcept--><g class="entity" data-entity="BiomedicalConcept" data-source-line="1" data-uid="ent0002" id="entity_BiomedicalConcept"><a href="" target="_top" title="None" xlink:actuate="onRequest" xlink:href="" xlink:show="new" xlink:title="None" xlink:type="simple"><rect fill="#F1F1F1" height="227.2656" rx="2.5" ry="2.5" style="stroke:#181818;stroke-width:0.5;" width="412.0596" x="119.36" y="7"/><ellipse cx="253.5631" cy="23" fill="#ADD1B2" rx="11" ry="11" style="stroke:#181818;stroke-width:1;"/><path d="M256.5319,28.6406 Q255.9538,28.9375 255.3131,29.0781 Q254.6725,29.2344 253.9694,29.2344 Q251.4694,29.2344 250.1413,27.5938 Q248.8288,25.9375 248.8288,22.8125 Q248.8288,19.6875 250.1413,18.0313 Q251.4694,16.375 253.9694,16.375 Q254.6725,16.375 255.3131,16.5313 Q255.9694,16.6875 256.5319,16.9844 L256.5319,19.7031 Q255.9069,19.125 255.3131,18.8594 Q254.7194,18.5781 254.0944,18.5781 Q252.7506,18.5781 252.0631,19.6563 Q251.3756,20.7188 251.3756,22.8125 Q251.3756,24.9063 252.0631,25.9844 Q252.7506,27.0469 254.0944,27.0469 Q254.7194,27.0469 255.3131,26.7813 Q255.9069,26.5 256.5319,25.9219 L256.5319,28.6406 Z " fill="#000000"/><text fill="#000000" font-family="sans-serif" font-size="14" lengthAdjust="spacing" textLength="135.1533" x="274.0631" y="27.8467">BiomedicalConcept</text><line style="stroke:#181818;stroke-width:0.5;" x1="120.36" x2="530.4196" y1="39" y2="39"/><text fill="#000000" font-family="sans-serif" font-size="14" lengthAdjust="spacing" textLength="137.9971" x="125.36" y="55.9951">packageDate : date</text><text fill="#000000" font-family="sans-serif" font-size="14" lengthAdjust="spacing" textLength="240.7754" x="125.36" y="72.292">packageType : PackageTypeEnum</text><text fill="#000000" font-family="sans-serif" font-size="14" lengthAdjust="spacing" textLength="122.6436" x="125.36" y="88.5889">conceptId : string</text><text fill="#000000" font-family="sans-serif" font-size="14" lengthAdjust="spacing" textLength="115.5957" x="125.36" y="104.8857">ncitCode : string</text><text fill="#000000" font-family="sans-serif" font-size="14" lengthAdjust="spacing" textLength="60.3066" x="125.36" y="121.1826">href : uri</text><text fill="#000000" font-family="sans-serif" font-size="14" lengthAdjust="spacing" textLength="170.9189" x="125.36" y="137.4795">parentConceptId : string</text><text fill="#000000" font-family="sans-serif" font-size="14" lengthAdjust="spacing" textLength="171.8213" x="125.36" y="153.7764">categories : string  [1..*]</text><text fill="#000000" font-family="sans-serif" font-size="14" lengthAdjust="spacing" textLength="131.0859" x="125.36" y="170.0732">shortName : string</text><text fill="#000000" font-family="sans-serif" font-size="14" lengthAdjust="spacing" textLength="169.5449" x="125.36" y="186.3701">synonyms : string  [0..*]</text><text fill="#000000" font-family="sans-serif" font-size="14" lengthAdjust="spacing" textLength="400.0596" x="125.36" y="202.667">resultScales : BiomedicalConceptResultScaleEnum  [0..*]</text><text fill="#000000" font-family="sans-serif" font-size="14" lengthAdjust="spacing" textLength="119.7041" x="125.36" y="218.9639">definition : string</text><line style="stroke:#181818;stroke-width:0.5;" x1="120.36" x2="530.4196" y1="226.2656" y2="226.2656"/></a></g><!--class DataElementConcept--><g class="entity" data-entity="DataElementConcept" data-source-line="14" data-uid="ent0003" id="entity_DataElementConcept"><a href="" target="_top" title="None" xlink:actuate="onRequest" xlink:href="" xlink:show="new" xlink:title="None" xlink:type="simple"><rect fill="#F1F1F1" height="145.7813" rx="2.5" ry="2.5" style="stroke:#181818;stroke-width:0.5;" width="348.7725" x="7" y="311.27"/><ellipse cx="102.4912" cy="327.27" fill="#ADD1B2" rx="11" ry="11" style="stroke:#181818;stroke-width:1;"/><path d="M105.46,332.9106 Q104.8818,333.2075 104.2412,333.3481 Q103.6006,333.5044 102.8975,333.5044 Q100.3975,333.5044 99.0693,331.8638 Q97.7568,330.2075 97.7568,327.0825 Q97.7568,323.9575 99.0693,322.3013 Q100.3975,320.645 102.8975,320.645 Q103.6006,320.645 104.2412,320.8013 Q104.8975,320.9575 105.46,321.2544 L105.46,323.9731 Q104.835,323.395 104.2412,323.1294 Q103.6475,322.8481 103.0225,322.8481 Q101.6787,322.8481 100.9912,323.9263 Q100.3037,324.9888 100.3037,327.0825 Q100.3037,329.1763 100.9912,330.2544 Q101.6787,331.3169 103.0225,331.3169 Q103.6475,331.3169 104.2412,331.0513 Q104.835,330.77 105.46,330.1919 L105.46,332.9106 Z " fill="#000000"/><text fill="#000000" font-family="sans-serif" font-size="14" lengthAdjust="spacing" textLength="149.29" x="122.9912" y="332.1167">DataElementConcept</text><line style="stroke:#181818;stroke-width:0.5;" x1="8" x2="354.7725" y1="343.27" y2="343.27"/><text fill="#000000" font-family="sans-serif" font-size="14" lengthAdjust="spacing" textLength="122.6436" x="13" y="360.2651">conceptId : string</text><text fill="#000000" font-family="sans-serif" font-size="14" lengthAdjust="spacing" textLength="115.5957" x="13" y="376.562">ncitCode : string</text><text fill="#000000" font-family="sans-serif" font-size="14" lengthAdjust="spacing" textLength="60.3066" x="13" y="392.8589">href : uri</text><text fill="#000000" font-family="sans-serif" font-size="14" lengthAdjust="spacing" textLength="131.0859" x="13" y="409.1557">shortName : string</text><text fill="#000000" font-family="sans-serif" font-size="14" lengthAdjust="spacing" textLength="336.7725" x="13" y="425.4526">dataType : DataElementConceptDataTypeEnum</text><text fill="#000000" font-family="sans-serif" font-size="14" lengthAdjust="spacing" textLength="181.9316" x="13" y="441.7495">exampleSet : string  [0..*]</text><line style="stroke:#181818;stroke-width:0.5;" x1="8" x2="354.7725" y1="449.0513" y2="449.0513"/></a></g><!--class Coding--><g class="entity" data-entity="Coding" data-source-line="23" data-uid="ent0005" id="entity_Coding"><a href="" target="_top" title="None" xlink:actuate="onRequest" xlink:href="" xlink:show="new" xlink:title="None" xlink:type="simple"><rect fill="#F1F1F1" height="96.8906" rx="2.5" ry="2.5" style="stroke:#181818;stroke-width:0.5;" width="157.7217" x="390.53" y="335.71"/><ellipse cx="440.7024" cy="351.71" fill="#ADD1B2" rx="11" ry="11" style="stroke:#181818;stroke-width:1;"/><path d="M443.6711,357.3506 Q443.093,357.6475 442.4524,357.7881 Q441.8117,357.9444 441.1086,357.9444 Q438.6086,357.9444 437.2805,356.3038 Q435.968,354.6475 435.968,351.5225 Q435.968,348.3975 437.2805,346.7413 Q438.6086,345.085 441.1086,345.085 Q441.8117,345.085 442.4524,345.2413 Q443.1086,345.3975 443.6711,345.6944 L443.6711,348.4131 Q443.0461,347.835 442.4524,347.5694 Q441.8586,347.2881 441.2336,347.2881 Q439.8899,347.2881 439.2024,348.3663 Q438.5149,349.4288 438.5149,351.5225 Q438.5149,353.6163 439.2024,354.6944 Q439.8899,355.7569 441.2336,355.7569 Q441.8586,355.7569 442.4524,355.4913 Q443.0461,355.21 443.6711,354.6319 L443.6711,357.3506 Z " fill="#000000"/><text fill="#000000" font-family="sans-serif" font-size="14" lengthAdjust="spacing" textLength="48.877" x="461.2024" y="356.5567">Coding</text><line style="stroke:#181818;stroke-width:0.5;" x1="391.53" x2="547.2517" y1="367.71" y2="367.71"/><text fill="#000000" font-family="sans-serif" font-size="14" lengthAdjust="spacing" textLength="87.5684" x="396.53" y="384.7051">code : string</text><text fill="#000000" font-family="sans-serif" font-size="14" lengthAdjust="spacing" textLength="104.4189" x="396.53" y="401.002">system : string</text><text fill="#000000" font-family="sans-serif" font-size="14" lengthAdjust="spacing" textLength="145.7217" x="396.53" y="417.2989">systemName : string</text><line style="stroke:#181818;stroke-width:0.5;" x1="391.53" x2="547.2517" y1="424.6006" y2="424.6006"/></a></g><!--link BiomedicalConcept to DataElementConcept--><g class="link" data-entity-1="BiomedicalConcept" data-entity-2="DataElementConcept" data-source-line="22" data-uid="lnk4" id="link_BiomedicalConcept_DataElementConcept"><path codeLine="22" d="M257.4822,244.9519 C243.1722,270.9419 237.0141,282.1341 223.9641,305.8341" fill="none" id="BiomedicalConcept-DataElementConcept" style="stroke:#181818;stroke-width:1;"/><polygon fill="#181818" points="263.27,234.44,256.8721,237.7667,257.4822,244.9519,263.8801,241.6253,263.27,234.44" style="stroke:#181818;stroke-width:1;"/><polygon fill="#181818" points="221.07,311.09,228.915,305.1355,223.4817,306.7101,221.9072,301.2768,221.07,311.09" style="stroke:#181818;stroke-width:1;"/><text fill="#000000" font-family="sans-serif" font-size="13" lengthAdjust="spacing" textLength="143.6411" x="246.39" y="277.3369">dataElementConcepts</text><text fill="#000000" font-family="sans-serif" font-size="13" lengthAdjust="spacing" textLength="23.0356" x="200.8461" y="300.2323">0..*</text></g><!--link BiomedicalConcept to Coding--><g class="link" data-entity-1="BiomedicalConcept" data-entity-2="Coding" data-source-line="28" data-uid="lnk6" id="link_BiomedicalConcept_Coding"><path codeLine="28" d="M393.2888,244.9514 C412.7788,280.3414 424.5659,301.7542 440.1659,330.0842" fill="none" id="BiomedicalConcept-Coding" style="stroke:#181818;stroke-width:1;"/><polygon fill="#181818" points="387.5,234.44,386.8906,241.6253,393.2888,244.9514,393.8982,237.7661,387.5,234.44" style="stroke:#181818;stroke-width:1;"/><polygon fill="#181818" points="443.06,335.34,442.2227,325.5268,440.6482,330.9601,435.2149,329.3857,443.06,335.34" style="stroke:#181818;stroke-width:1;"/><text fill="#000000" font-family="sans-serif" font-size="13" lengthAdjust="spacing" textLength="43.4561" x="410.39" y="277.3369">coding</text><text fill="#000000" font-family="sans-serif" font-size="13" lengthAdjust="spacing" textLength="23.0356" x="414.7425" y="324.4969">0..*</text></g><!--SRC=[jLAnReCm4Dtv2ijZf4Jjcg53IOOkKTLqGmoMVH2hzXdPHYf2_7jDIKI22UbIBzYyfxjtxnvNp3b2NwNH82HdAZN8eVAKP5bxC0XTdfCs8U6qXGGbEb8n_iLAs34FP4j4_o5pXC-cwWdluskFjPvm-T3kJGIcyrPYEI4Wbpur0kxX9mj5m6eh8nKMqAUFwlEWlpHMWhjYPC-RpIg_uRcJiVx0z5qXha63ZRufynILiU1gvO_1wD-6aUyV8pwuDLD3G25HUcdmMakNy66NOJ5ihq2Fqoyiy__yVsXOI0uxPoIMl3k3Cv61RwOh1KVmiTLTCXVbrNhzGcZFeFFsR0aLqMz7Buw6-KEJHHV5GYwS1xsCJctwmnWNJK4w7wu_]--></g></svg>