<?xml version="1.0" encoding="us-ascii" standalone="no"?><svg xmlns="http://www.w3.org/2000/svg" xmlns:xlink="http://www.w3.org/1999/xlink" contentStyleType="text/css" height="784px" preserveAspectRatio="none" style="width:665px;height:784px;background:#FFFFFF;" version="1.1" viewBox="0 0 665 784" width="665px" zoomAndPan="magnify"><defs/><g><!--class SubsetCodeList--><a href="" target="_top" title="None" xlink:actuate="onRequest" xlink:href="" xlink:show="new" xlink:title="None" xlink:type="simple"><g id="elem_SubsetCodeList"><rect codeLine="1" fill="#F1F1F1" height="96.8906" id="SubsetCodeList" rx="2.5" ry="2.5" style="stroke:#181818;stroke-width:0.5;" width="189" x="26" y="55.89"/><ellipse cx="62.6" cy="71.89" fill="#ADD1B2" rx="11" ry="11" style="stroke:#181818;stroke-width:1.0;"/><path d="M65.5688,77.5306 Q64.9906,77.8275 64.35,77.9681 Q63.7094,78.1244 63.0063,78.1244 Q60.5063,78.1244 59.1781,76.4837 Q57.8656,74.8275 57.8656,71.7025 Q57.8656,68.5775 59.1781,66.9212 Q60.5063,65.265 63.0063,65.265 Q63.7094,65.265 64.35,65.4212 Q65.0063,65.5775 65.5688,65.8744 L65.5688,68.5931 Q64.9438,68.015 64.35,67.7494 Q63.7563,67.4681 63.1313,67.4681 Q61.7875,67.4681 61.1,68.5462 Q60.4125,69.6087 60.4125,71.7025 Q60.4125,73.7962 61.1,74.8744 Q61.7875,75.9369 63.1313,75.9369 Q63.7563,75.9369 64.35,75.6712 Q64.9438,75.39 65.5688,74.8119 L65.5688,77.5306 Z " fill="#000000"/><text fill="#000000" font-family="sans-serif" font-size="14" lengthAdjust="spacing" textLength="109" x="81.4" y="76.7367">SubsetCodeList</text><line style="stroke:#181818;stroke-width:0.5;" x1="27" x2="214" y1="87.89" y2="87.89"/><text fill="#000000" font-family="sans-serif" font-size="14" lengthAdjust="spacing" textLength="153" x="32" y="104.8851">parentCodelist : string</text><text fill="#000000" font-family="sans-serif" font-size="14" lengthAdjust="spacing" textLength="177" x="32" y="121.182">subsetShortName : string</text><text fill="#000000" font-family="sans-serif" font-size="14" lengthAdjust="spacing" textLength="136" x="32" y="137.4789">subsetLabel : string</text><line style="stroke:#181818;stroke-width:0.5;" x1="27" x2="214" y1="144.7806" y2="144.7806"/></g></a><!--class CodeListTerm--><a href="" target="_top" title="None" xlink:actuate="onRequest" xlink:href="" xlink:show="new" xlink:title="None" xlink:type="simple"><g id="elem_CodeListTerm"><rect codeLine="6" fill="#F1F1F1" height="80.5938" id="CodeListTerm" rx="2.5" ry="2.5" style="stroke:#181818;stroke-width:0.5;" width="134" x="53.5" y="392.75"/><ellipse cx="71.2" cy="408.75" fill="#ADD1B2" rx="11" ry="11" style="stroke:#181818;stroke-width:1.0;"/><path d="M74.1688,414.3906 Q73.5906,414.6875 72.95,414.8281 Q72.3094,414.9844 71.6063,414.9844 Q69.1063,414.9844 67.7781,413.3438 Q66.4656,411.6875 66.4656,408.5625 Q66.4656,405.4375 67.7781,403.7813 Q69.1063,402.125 71.6063,402.125 Q72.3094,402.125 72.95,402.2813 Q73.6063,402.4375 74.1688,402.7344 L74.1688,405.4531 Q73.5438,404.875 72.95,404.6094 Q72.3563,404.3281 71.7313,404.3281 Q70.3875,404.3281 69.7,405.4063 Q69.0125,406.4688 69.0125,408.5625 Q69.0125,410.6563 69.7,411.7344 Q70.3875,412.7969 71.7313,412.7969 Q72.3563,412.7969 72.95,412.5313 Q73.5438,412.25 74.1688,411.6719 L74.1688,414.3906 Z " fill="#000000"/><text fill="#000000" font-family="sans-serif" font-size="14" lengthAdjust="spacing" textLength="96" x="85.8" y="413.5967">CodeListTerm</text><line style="stroke:#181818;stroke-width:0.5;" x1="54.5" x2="186.5" y1="424.75" y2="424.75"/><text fill="#000000" font-family="sans-serif" font-size="14" lengthAdjust="spacing" textLength="96" x="59.5" y="441.7451">termId : string</text><text fill="#000000" font-family="sans-serif" font-size="14" lengthAdjust="spacing" textLength="122" x="59.5" y="458.042">termValue : string</text><line style="stroke:#181818;stroke-width:0.5;" x1="54.5" x2="186.5" y1="465.3438" y2="465.3438"/></g></a><!--class SDTMVariable--><a href="" target="_top" title="None" xlink:actuate="onRequest" xlink:href="" xlink:show="new" xlink:title="None" xlink:type="simple"><g id="elem_SDTMVariable"><rect codeLine="11" fill="#F1F1F1" height="308.75" id="SDTMVariable" rx="2.5" ry="2.5" style="stroke:#181818;stroke-width:0.5;" width="290" x="230.5" y="278.67"/><ellipse cx="323.75" cy="294.67" fill="#ADD1B2" rx="11" ry="11" style="stroke:#181818;stroke-width:1.0;"/><path d="M326.7188,300.3106 Q326.1406,300.6075 325.5,300.7481 Q324.8594,300.9044 324.1563,300.9044 Q321.6563,300.9044 320.3281,299.2638 Q319.0156,297.6075 319.0156,294.4825 Q319.0156,291.3575 320.3281,289.7013 Q321.6563,288.045 324.1563,288.045 Q324.8594,288.045 325.5,288.2013 Q326.1563,288.3575 326.7188,288.6544 L326.7188,291.3731 Q326.0938,290.795 325.5,290.5294 Q324.9063,290.2481 324.2813,290.2481 Q322.9375,290.2481 322.25,291.3263 Q321.5625,292.3888 321.5625,294.4825 Q321.5625,296.5763 322.25,297.6544 Q322.9375,298.7169 324.2813,298.7169 Q324.9063,298.7169 325.5,298.4513 Q326.0938,298.17 326.7188,297.5919 L326.7188,300.3106 Z " fill="#000000"/><text fill="#000000" font-family="sans-serif" font-size="14" lengthAdjust="spacing" textLength="95" x="344.25" y="299.5167">SDTMVariable</text><line style="stroke:#181818;stroke-width:0.5;" x1="231.5" x2="519.5" y1="310.67" y2="310.67"/><text fill="#000000" font-family="sans-serif" font-size="14" lengthAdjust="spacing" textLength="91" x="236.5" y="327.6651">name : string</text><text fill="#000000" font-family="sans-serif" font-size="14" lengthAdjust="spacing" textLength="210" x="236.5" y="343.962">dataElementConceptId : string</text><text fill="#000000" font-family="sans-serif" font-size="14" lengthAdjust="spacing" textLength="170" x="236.5" y="360.2589">isNonStandard : boolean</text><text fill="#000000" font-family="sans-serif" font-size="14" lengthAdjust="spacing" textLength="156" x="236.5" y="376.5557">subsetCodelist : string</text><text fill="#000000" font-family="sans-serif" font-size="14" lengthAdjust="spacing" textLength="153" x="236.5" y="392.8526">valueList : string  [0..*]</text><text fill="#000000" font-family="sans-serif" font-size="14" lengthAdjust="spacing" textLength="110" x="236.5" y="409.1495">role : RoleEnum</text><text fill="#000000" font-family="sans-serif" font-size="14" lengthAdjust="spacing" textLength="278" x="236.5" y="425.4464">dataType : SDTMVariableDataTypeEnum</text><text fill="#000000" font-family="sans-serif" font-size="14" lengthAdjust="spacing" textLength="106" x="236.5" y="441.7432">length : integer</text><text fill="#000000" font-family="sans-serif" font-size="14" lengthAdjust="spacing" textLength="96" x="236.5" y="458.0401">format : string</text><text fill="#000000" font-family="sans-serif" font-size="14" lengthAdjust="spacing" textLength="170" x="236.5" y="474.337">significantDigits : integer</text><text fill="#000000" font-family="sans-serif" font-size="14" lengthAdjust="spacing" textLength="196" x="236.5" y="490.6339">mandatoryVariable : boolean</text><text fill="#000000" font-family="sans-serif" font-size="14" lengthAdjust="spacing" textLength="180" x="236.5" y="506.9307">mandatoryValue : boolean</text><text fill="#000000" font-family="sans-serif" font-size="14" lengthAdjust="spacing" textLength="199" x="236.5" y="523.2276">originType : OriginTypeEnum</text><text fill="#000000" font-family="sans-serif" font-size="14" lengthAdjust="spacing" textLength="229" x="236.5" y="539.5245">originSource : OriginSourceEnum</text><text fill="#000000" font-family="sans-serif" font-size="14" lengthAdjust="spacing" textLength="213" x="236.5" y="555.8214">comparator : ComparatorEnum</text><text fill="#000000" font-family="sans-serif" font-size="14" lengthAdjust="spacing" textLength="137" x="236.5" y="572.1182">vlmTarget : boolean</text><line style="stroke:#181818;stroke-width:0.5;" x1="231.5" x2="519.5" y1="579.42" y2="579.42"/></g></a><!--class RelationShip--><a href="" target="_top" title="None" xlink:actuate="onRequest" xlink:href="" xlink:show="new" xlink:title="None" xlink:type="simple"><g id="elem_RelationShip"><rect codeLine="29" fill="#F1F1F1" height="113.1875" id="RelationShip" rx="2.5" ry="2.5" style="stroke:#181818;stroke-width:0.5;" width="267" x="7" y="664.42"/><ellipse cx="93.25" cy="680.42" fill="#ADD1B2" rx="11" ry="11" style="stroke:#181818;stroke-width:1.0;"/><path d="M96.2188,686.0606 Q95.6406,686.3575 95,686.4981 Q94.3594,686.6544 93.6563,686.6544 Q91.1563,686.6544 89.8281,685.0138 Q88.5156,683.3575 88.5156,680.2325 Q88.5156,677.1075 89.8281,675.4513 Q91.1563,673.795 93.6563,673.795 Q94.3594,673.795 95,673.9513 Q95.6563,674.1075 96.2188,674.4044 L96.2188,677.1231 Q95.5938,676.545 95,676.2794 Q94.4063,675.9981 93.7813,675.9981 Q92.4375,675.9981 91.75,677.0763 Q91.0625,678.1388 91.0625,680.2325 Q91.0625,682.3263 91.75,683.4044 Q92.4375,684.4669 93.7813,684.4669 Q94.4063,684.4669 95,684.2013 Q95.5938,683.92 96.2188,683.3419 L96.2188,686.0606 Z " fill="#000000"/><text fill="#000000" font-family="sans-serif" font-size="14" lengthAdjust="spacing" textLength="86" x="113.75" y="685.2667">RelationShip</text><line style="stroke:#181818;stroke-width:0.5;" x1="8" x2="273" y1="696.42" y2="696.42"/><text fill="#000000" font-family="sans-serif" font-size="14" lengthAdjust="spacing" textLength="103" x="13" y="713.4151">subject : string</text><text fill="#000000" font-family="sans-serif" font-size="14" lengthAdjust="spacing" textLength="241" x="13" y="729.712">linkingPhrase : LinkingPhraseEnum</text><text fill="#000000" font-family="sans-serif" font-size="14" lengthAdjust="spacing" textLength="255" x="13" y="746.0089">predicateTerm : PredicateTermEnum</text><text fill="#000000" font-family="sans-serif" font-size="14" lengthAdjust="spacing" textLength="95" x="13" y="762.3057">object : string</text><line style="stroke:#181818;stroke-width:0.5;" x1="8" x2="273" y1="769.6075" y2="769.6075"/></g></a><!--class AssignedTerm--><a href="" target="_top" title="None" xlink:actuate="onRequest" xlink:href="" xlink:show="new" xlink:title="None" xlink:type="simple"><g id="elem_AssignedTerm"><rect codeLine="35" fill="#F1F1F1" height="80.5938" id="AssignedTerm" rx="2.5" ry="2.5" style="stroke:#181818;stroke-width:0.5;" width="133" x="309" y="680.72"/><ellipse cx="324.45" cy="696.72" fill="#ADD1B2" rx="11" ry="11" style="stroke:#181818;stroke-width:1.0;"/><path d="M327.4188,702.3606 Q326.8406,702.6575 326.2,702.7981 Q325.5594,702.9544 324.8563,702.9544 Q322.3563,702.9544 321.0281,701.3138 Q319.7156,699.6575 319.7156,696.5325 Q319.7156,693.4075 321.0281,691.7513 Q322.3563,690.095 324.8563,690.095 Q325.5594,690.095 326.2,690.2513 Q326.8563,690.4075 327.4188,690.7044 L327.4188,693.4231 Q326.7938,692.845 326.2,692.5794 Q325.6063,692.2981 324.9813,692.2981 Q323.6375,692.2981 322.95,693.3763 Q322.2625,694.4388 322.2625,696.5325 Q322.2625,698.6263 322.95,699.7044 Q323.6375,700.7669 324.9813,700.7669 Q325.6063,700.7669 326.2,700.5013 Q326.7938,700.22 327.4188,699.6419 L327.4188,702.3606 Z " fill="#000000"/><text fill="#000000" font-family="sans-serif" font-size="14" lengthAdjust="spacing" textLength="100" x="338.55" y="701.5667">AssignedTerm</text><line style="stroke:#181818;stroke-width:0.5;" x1="310" x2="441" y1="712.72" y2="712.72"/><text fill="#000000" font-family="sans-serif" font-size="14" lengthAdjust="spacing" textLength="121" x="315" y="729.7151">conceptId : string</text><text fill="#000000" font-family="sans-serif" font-size="14" lengthAdjust="spacing" textLength="88" x="315" y="746.012">value : string</text><line style="stroke:#181818;stroke-width:0.5;" x1="310" x2="441" y1="753.3138" y2="753.3138"/></g></a><!--class CodeList--><a href="" target="_top" title="None" xlink:actuate="onRequest" xlink:href="" xlink:show="new" xlink:title="None" xlink:type="simple"><g id="elem_CodeList"><rect codeLine="39" fill="#F1F1F1" height="96.8906" id="CodeList" rx="2.5" ry="2.5" style="stroke:#181818;stroke-width:0.5;" width="181" x="477" y="672.57"/><ellipse cx="533.25" cy="688.57" fill="#ADD1B2" rx="11" ry="11" style="stroke:#181818;stroke-width:1.0;"/><path d="M536.2188,694.2106 Q535.6406,694.5075 535,694.6481 Q534.3594,694.8044 533.6563,694.8044 Q531.1563,694.8044 529.8281,693.1638 Q528.5156,691.5075 528.5156,688.3825 Q528.5156,685.2575 529.8281,683.6013 Q531.1563,681.945 533.6563,681.945 Q534.3594,681.945 535,682.1013 Q535.6563,682.2575 536.2188,682.5544 L536.2188,685.2731 Q535.5938,684.695 535,684.4294 Q534.4063,684.1481 533.7813,684.1481 Q532.4375,684.1481 531.75,685.2263 Q531.0625,686.2888 531.0625,688.3825 Q531.0625,690.4763 531.75,691.5544 Q532.4375,692.6169 533.7813,692.6169 Q534.4063,692.6169 535,692.3513 Q535.5938,692.07 536.2188,691.4919 L536.2188,694.2106 Z " fill="#000000"/><text fill="#000000" font-family="sans-serif" font-size="14" lengthAdjust="spacing" textLength="60" x="553.75" y="693.4167">CodeList</text><line style="stroke:#181818;stroke-width:0.5;" x1="478" x2="657" y1="704.57" y2="704.57"/><text fill="#000000" font-family="sans-serif" font-size="14" lengthAdjust="spacing" textLength="121" x="483" y="721.5651">conceptId : string</text><text fill="#000000" font-family="sans-serif" font-size="14" lengthAdjust="spacing" textLength="57" x="483" y="737.862">href : uri</text><text fill="#000000" font-family="sans-serif" font-size="14" lengthAdjust="spacing" textLength="169" x="483" y="754.1589">submissionValue : string</text><line style="stroke:#181818;stroke-width:0.5;" x1="478" x2="657" y1="761.4606" y2="761.4606"/></g></a><!--class SDTMGroup--><a href="" target="_top" title="None" xlink:actuate="onRequest" xlink:href="" xlink:show="new" xlink:title="None" xlink:type="simple"><g id="elem_SDTMGroup"><rect codeLine="44" fill="#F1F1F1" height="194.6719" id="SDTMGroup" rx="2.5" ry="2.5" style="stroke:#181818;stroke-width:0.5;" width="251" x="250" y="7"/><ellipse cx="329.25" cy="23" fill="#ADD1B2" rx="11" ry="11" style="stroke:#181818;stroke-width:1.0;"/><path d="M332.2188,28.6406 Q331.6406,28.9375 331,29.0781 Q330.3594,29.2344 329.6563,29.2344 Q327.1563,29.2344 325.8281,27.5938 Q324.5156,25.9375 324.5156,22.8125 Q324.5156,19.6875 325.8281,18.0313 Q327.1563,16.375 329.6563,16.375 Q330.3594,16.375 331,16.5313 Q331.6563,16.6875 332.2188,16.9844 L332.2188,19.7031 Q331.5938,19.125 331,18.8594 Q330.4063,18.5781 329.7813,18.5781 Q328.4375,18.5781 327.75,19.6563 Q327.0625,20.7188 327.0625,22.8125 Q327.0625,24.9063 327.75,25.9844 Q328.4375,27.0469 329.7813,27.0469 Q330.4063,27.0469 331,26.7813 Q331.5938,26.5 332.2188,25.9219 L332.2188,28.6406 Z " fill="#000000"/><text fill="#000000" font-family="sans-serif" font-size="14" lengthAdjust="spacing" textLength="84" x="349.75" y="27.8467">SDTMGroup</text><line style="stroke:#181818;stroke-width:0.5;" x1="251" x2="500" y1="39" y2="39"/><text fill="#000000" font-family="sans-serif" font-size="14" lengthAdjust="spacing" textLength="136" x="256" y="55.9951">packageDate : date</text><text fill="#000000" font-family="sans-serif" font-size="14" lengthAdjust="spacing" textLength="239" x="256" y="72.292">packageType : PackageTypeEnum</text><text fill="#000000" font-family="sans-serif" font-size="14" lengthAdjust="spacing" textLength="210" x="256" y="88.5889">datasetSpecializationId : string</text><text fill="#000000" font-family="sans-serif" font-size="14" lengthAdjust="spacing" textLength="103" x="256" y="104.8857">domain : string</text><text fill="#000000" font-family="sans-serif" font-size="14" lengthAdjust="spacing" textLength="128" x="256" y="121.1826">shortName : string</text><text fill="#000000" font-family="sans-serif" font-size="14" lengthAdjust="spacing" textLength="100" x="256" y="137.4795">source : string</text><text fill="#000000" font-family="sans-serif" font-size="14" lengthAdjust="spacing" textLength="183" x="256" y="153.7764">sdtmigStartVersion : string</text><text fill="#000000" font-family="sans-serif" font-size="14" lengthAdjust="spacing" textLength="178" x="256" y="170.0732">sdtmigEndVersion : string</text><text fill="#000000" font-family="sans-serif" font-size="14" lengthAdjust="spacing" textLength="197" x="256" y="186.3701">biomedicalConceptId : string</text><line style="stroke:#181818;stroke-width:0.5;" x1="251" x2="500" y1="193.6719" y2="193.6719"/></g></a><!--link SubsetCodeList to CodeListTerm--><g id="link_SubsetCodeList_CodeListTerm"><path codeLine="10" d="M120.5,165.19 C120.5,229.89 120.5,326.06 120.5,386.29 " fill="none" id="SubsetCodeList-CodeListTerm" style="stroke:#181818;stroke-width:1.0;"/><polygon fill="#181818" points="120.5,153.19,116.5,159.19,120.5,165.19,124.5,159.19,120.5,153.19" style="stroke:#181818;stroke-width:1.0;"/><polygon fill="#181818" points="120.5,392.29,124.5,383.29,120.5,387.29,116.5,383.29,120.5,392.29" style="stroke:#181818;stroke-width:1.0;"/><text fill="#000000" font-family="sans-serif" font-size="13" lengthAdjust="spacing" textLength="82" x="121.5" y="244.7369">codelistTerm</text><text fill="#000000" font-family="sans-serif" font-size="13" lengthAdjust="spacing" textLength="23" x="95.6672" y="381.6765">1..*</text></g><!--link SDTMVariable to RelationShip--><g id="link_SDTMVariable_RelationShip"><path codeLine="55" d="M241.4423,597.182 C219.0623,624.422 208.5387,637.2139 190.3087,659.4039 " fill="none" id="SDTMVariable-RelationShip" style="stroke:#181818;stroke-width:1.0;"/><polygon fill="#181818" points="249.06,587.91,242.1605,590.0068,241.4423,597.182,248.3418,595.0852,249.06,587.91" style="stroke:#181818;stroke-width:1.0;"/><polygon fill="#181818" points="186.5,664.04,195.3039,659.625,189.674,660.1766,189.1224,654.5467,186.5,664.04" style="stroke:#181818;stroke-width:1.0;"/><text fill="#000000" font-family="sans-serif" font-size="13" lengthAdjust="spacing" textLength="74" x="224.5" y="630.4869">relationship</text><text fill="#000000" font-family="sans-serif" font-size="13" lengthAdjust="spacing" textLength="24" x="166.6438" y="653.2572">0..1</text></g><!--link SDTMVariable to AssignedTerm--><g id="link_SDTMVariable_AssignedTerm"><path codeLine="56" d="M375.5,599.91 C375.5,634.29 375.5,649.81 375.5,674.49 " fill="none" id="SDTMVariable-AssignedTerm" style="stroke:#181818;stroke-width:1.0;"/><polygon fill="#181818" points="375.5,587.91,371.5,593.91,375.5,599.91,379.5,593.91,375.5,587.91" style="stroke:#181818;stroke-width:1.0;"/><polygon fill="#181818" points="375.5,680.49,379.5,671.49,375.5,675.49,371.5,671.49,375.5,680.49" style="stroke:#181818;stroke-width:1.0;"/><text fill="#000000" font-family="sans-serif" font-size="13" lengthAdjust="spacing" textLength="90" x="376.5" y="630.4869">assignedTerm</text><text fill="#000000" font-family="sans-serif" font-size="13" lengthAdjust="spacing" textLength="24" x="349.5125" y="669.6134">0..1</text></g><!--link SDTMVariable to CodeList--><g id="link_SDTMVariable_CodeList"><path codeLine="57" d="M485.4986,597.8731 C506.0886,628.5431 516.1958,643.5984 532.0658,667.2384 " fill="none" id="SDTMVariable-CodeList" style="stroke:#181818;stroke-width:1.0;"/><polygon fill="#181818" points="478.81,587.91,478.8333,595.1211,485.4986,597.8731,485.4753,590.662,478.81,587.91" style="stroke:#181818;stroke-width:1.0;"/><polygon fill="#181818" points="535.41,672.22,533.7147,662.5181,532.6231,668.0687,527.0726,666.9771,535.41,672.22" style="stroke:#181818;stroke-width:1.0;"/><text fill="#000000" font-family="sans-serif" font-size="13" lengthAdjust="spacing" textLength="49" x="505.5" y="630.4869">codelist</text><text fill="#000000" font-family="sans-serif" font-size="13" lengthAdjust="spacing" textLength="24" x="505.2098" y="661.3797">0..1</text></g><!--link SDTMGroup to SDTMVariable--><g id="link_SDTMGroup_SDTMVariable"><path codeLine="58" d="M375.5,214.03 C375.5,238.03 375.5,246.33 375.5,272.31 " fill="none" id="SDTMGroup-SDTMVariable" style="stroke:#181818;stroke-width:1.0;"/><polygon fill="#181818" points="375.5,202.03,371.5,208.03,375.5,214.03,379.5,208.03,375.5,202.03" style="stroke:#181818;stroke-width:1.0;"/><polygon fill="#181818" points="375.5,278.31,379.5,269.31,375.5,273.31,371.5,269.31,375.5,278.31" style="stroke:#181818;stroke-width:1.0;"/><text fill="#000000" font-family="sans-serif" font-size="13" lengthAdjust="spacing" textLength="57" x="376.5" y="244.7369">variables</text><text fill="#000000" font-family="sans-serif" font-size="13" lengthAdjust="spacing" textLength="23" x="351.943" y="267.5219">1..*</text></g><!--SRC=[fLLDR-8m4BttLrWvLcgrlVQmqggWLINQeeAu80x67i9i_H7P3b8NyTzt708au2I7pIMQyVDyvRs9KDnxbitAjOVmOYLCq8UCBPVxTslWi5gn_HsZPxz1KFB02kx0L415GFRCV71eSiPQA5-5cssj2-zSGpzimjUWcf33dJXMTQfd3axtr1Je-5Ls9Ocd2wvAQAUuQVd-uU4dovuU7- -pwypFB1DrnvNZLDziD7zRS8TyhQ2dFjCp0ia37olGrL2DW29qTuAUuiy2DvAx25fRgu2Rv527lj0kJcJI1Yn_KFEh5inH1a9yqcjiIfqeVlvTH4Hp5AFQdRYXmEHXItWq0N9mLySRwpJlPXNc1ZSek0aZp37upZWwpYXOztqggNDQ3UIH8ccOTPJGrBr-d8r4XqVap9PENB17Cu4MLfEYOW64VJaR2UHEwJbtEOHMZMUfV8BY0OaUMonwg4Za-0EYSy8ApHTvfrl7VQn-qhGJHHKE97sF054MX9ysxTHmRhAV6_Zbu-S5EQ1rCIIItQtKhxR9_qJVEjZGMUdmLdKQgGLh5fq5H8tyThOiUlUh-E9vb52C8UEBfG0r5QSNgqEVSGyN890h_5infBivQJL7qwc-mMr-udpwL0QDEMql5nRWug3waMCZ1t1hjBgYcqfkphZYM_lvkE1fnprbrtgX1UzgXu-Etgjjfj9LtdJqNhrGiF5BgQ_Kp6ZzXjgXwCwkDdps3m00]--></g></svg>