<?xml version="1.0" encoding="us-ascii" standalone="no"?><svg xmlns="http://www.w3.org/2000/svg" xmlns:xlink="http://www.w3.org/1999/xlink" contentStyleType="text/css" height="752px" preserveAspectRatio="none" style="width:815px;height:752px;background:#FFFFFF;" version="1.1" viewBox="0 0 815 752" width="815px" zoomAndPan="magnify"><defs/><g><!--class DataCollectionItem--><a href="" target="_top" title="None" xlink:actuate="onRequest" xlink:href="" xlink:show="new" xlink:title="None" xlink:type="simple"><g id="elem_DataCollectionItem"><rect codeLine="1" fill="#F1F1F1" height="243.5625" id="DataCollectionItem" rx="2.5" ry="2.5" style="stroke:#181818;stroke-width:0.5;" width="293" x="275" y="327.57"/><ellipse cx="352.25" cy="343.57" fill="#ADD1B2" rx="11" ry="11" style="stroke:#181818;stroke-width:1.0;"/><path d="M355.2188,349.2106 Q354.6406,349.5075 354,349.6481 Q353.3594,349.8044 352.6563,349.8044 Q350.1563,349.8044 348.8281,348.1638 Q347.5156,346.5075 347.5156,343.3825 Q347.5156,340.2575 348.8281,338.6013 Q350.1563,336.945 352.6563,336.945 Q353.3594,336.945 354,337.1013 Q354.6563,337.2575 355.2188,337.5544 L355.2188,340.2731 Q354.5938,339.695 354,339.4294 Q353.4063,339.1481 352.7813,339.1481 Q351.4375,339.1481 350.75,340.2263 Q350.0625,341.2888 350.0625,343.3825 Q350.0625,345.4763 350.75,346.5544 Q351.4375,347.6169 352.7813,347.6169 Q353.4063,347.6169 354,347.3513 Q354.5938,347.07 355.2188,346.4919 L355.2188,349.2106 Z " fill="#000000"/><text fill="#000000" font-family="sans-serif" font-size="14" lengthAdjust="spacing" textLength="130" x="372.75" y="348.4167">DataCollectionItem</text><line style="stroke:#181818;stroke-width:0.5;" x1="276" x2="567" y1="359.57" y2="359.57"/><text fill="#000000" font-family="sans-serif" font-size="14" lengthAdjust="spacing" textLength="91" x="281" y="376.5651">name : string</text><text fill="#000000" font-family="sans-serif" font-size="14" lengthAdjust="spacing" textLength="144" x="281" y="392.862">variableName : string</text><text fill="#000000" font-family="sans-serif" font-size="14" lengthAdjust="spacing" textLength="210" x="281" y="409.1589">dataElementConceptId : string</text><text fill="#000000" font-family="sans-serif" font-size="14" lengthAdjust="spacing" textLength="143" x="281" y="425.4557">questionText : string</text><text fill="#000000" font-family="sans-serif" font-size="14" lengthAdjust="spacing" textLength="102" x="281" y="441.7526">prompt : string</text><text fill="#000000" font-family="sans-serif" font-size="14" lengthAdjust="spacing" textLength="154" x="281" y="458.0495">orderNumber : integer</text><text fill="#000000" font-family="sans-serif" font-size="14" lengthAdjust="spacing" textLength="196" x="281" y="474.3464">mandatoryVariable : boolean</text><text fill="#000000" font-family="sans-serif" font-size="14" lengthAdjust="spacing" textLength="281" x="281" y="490.6432">dataType : CollectionItemDataTypeEnum</text><text fill="#000000" font-family="sans-serif" font-size="14" lengthAdjust="spacing" textLength="106" x="281" y="506.9401">length : integer</text><text fill="#000000" font-family="sans-serif" font-size="14" lengthAdjust="spacing" textLength="170" x="281" y="523.237">significantDigits : integer</text><text fill="#000000" font-family="sans-serif" font-size="14" lengthAdjust="spacing" textLength="165" x="281" y="539.5339">displayHidden : boolean</text><text fill="#000000" font-family="sans-serif" font-size="14" lengthAdjust="spacing" textLength="163" x="281" y="555.8307">listType : ListTypeEnum</text><line style="stroke:#181818;stroke-width:0.5;" x1="276" x2="567" y1="563.1325" y2="563.1325"/></g></a><!--class SDTMTarget--><a href="" target="_top" title="None" xlink:actuate="onRequest" xlink:href="" xlink:show="new" xlink:title="None" xlink:type="simple"><g id="elem_SDTMTarget"><rect codeLine="15" fill="#F1F1F1" height="96.8906" id="SDTMTarget" rx="2.5" ry="2.5" style="stroke:#181818;stroke-width:0.5;" width="203" x="7" y="648.13"/><ellipse cx="61.25" cy="664.13" fill="#ADD1B2" rx="11" ry="11" style="stroke:#181818;stroke-width:1.0;"/><path d="M64.2188,669.7706 Q63.6406,670.0675 63,670.2081 Q62.3594,670.3644 61.6563,670.3644 Q59.1563,670.3644 57.8281,668.7238 Q56.5156,667.0675 56.5156,663.9425 Q56.5156,660.8175 57.8281,659.1613 Q59.1563,657.505 61.6563,657.505 Q62.3594,657.505 63,657.6613 Q63.6563,657.8175 64.2188,658.1144 L64.2188,660.8331 Q63.5938,660.255 63,659.9894 Q62.4063,659.7081 61.7813,659.7081 Q60.4375,659.7081 59.75,660.7863 Q59.0625,661.8488 59.0625,663.9425 Q59.0625,666.0363 59.75,667.1144 Q60.4375,668.1769 61.7813,668.1769 Q62.4063,668.1769 63,667.9113 Q63.5938,667.63 64.2188,667.0519 L64.2188,669.7706 Z " fill="#000000"/><text fill="#000000" font-family="sans-serif" font-size="14" lengthAdjust="spacing" textLength="86" x="81.75" y="668.9767">SDTMTarget</text><line style="stroke:#181818;stroke-width:0.5;" x1="8" x2="209" y1="680.13" y2="680.13"/><text fill="#000000" font-family="sans-serif" font-size="14" lengthAdjust="spacing" textLength="162" x="13" y="697.1251">sdtmAnnotation : string</text><text fill="#000000" font-family="sans-serif" font-size="14" lengthAdjust="spacing" textLength="191" x="13" y="713.422">sdtmVariables : string  [1..*]</text><text fill="#000000" font-family="sans-serif" font-size="14" lengthAdjust="spacing" textLength="191" x="13" y="729.7189">sdtmTargetMapping : string</text><line style="stroke:#181818;stroke-width:0.5;" x1="8" x2="209" y1="737.0206" y2="737.0206"/></g></a><!--class PrepopulatedValue--><a href="" target="_top" title="None" xlink:actuate="onRequest" xlink:href="" xlink:show="new" xlink:title="None" xlink:type="simple"><g id="elem_PrepopulatedValue"><rect codeLine="21" fill="#F1F1F1" height="80.5938" id="PrepopulatedValue" rx="2.5" ry="2.5" style="stroke:#181818;stroke-width:0.5;" width="163" x="245" y="656.28"/><ellipse cx="260" cy="672.28" fill="#ADD1B2" rx="11" ry="11" style="stroke:#181818;stroke-width:1.0;"/><path d="M262.9688,677.9206 Q262.3906,678.2175 261.75,678.3581 Q261.1094,678.5144 260.4063,678.5144 Q257.9063,678.5144 256.5781,676.8738 Q255.2656,675.2175 255.2656,672.0925 Q255.2656,668.9675 256.5781,667.3113 Q257.9063,665.655 260.4063,665.655 Q261.1094,665.655 261.75,665.8113 Q262.4063,665.9675 262.9688,666.2644 L262.9688,668.9831 Q262.3438,668.405 261.75,668.1394 Q261.1563,667.8581 260.5313,667.8581 Q259.1875,667.8581 258.5,668.9363 Q257.8125,669.9988 257.8125,672.0925 Q257.8125,674.1863 258.5,675.2644 Q259.1875,676.3269 260.5313,676.3269 Q261.1563,676.3269 261.75,676.0613 Q262.3438,675.78 262.9688,675.2019 L262.9688,677.9206 Z " fill="#000000"/><text fill="#000000" font-family="sans-serif" font-size="14" lengthAdjust="spacing" textLength="131" x="274" y="677.1267">PrepopulatedValue</text><line style="stroke:#181818;stroke-width:0.5;" x1="246" x2="407" y1="688.28" y2="688.28"/><text fill="#000000" font-family="sans-serif" font-size="14" lengthAdjust="spacing" textLength="88" x="251" y="705.2751">value : string</text><text fill="#000000" font-family="sans-serif" font-size="14" lengthAdjust="spacing" textLength="121" x="251" y="721.572">conceptId : string</text><line style="stroke:#181818;stroke-width:0.5;" x1="246" x2="407" y1="728.8738" y2="728.8738"/></g></a><!--class ListValue--><a href="" target="_top" title="None" xlink:actuate="onRequest" xlink:href="" xlink:show="new" xlink:title="None" xlink:type="simple"><g id="elem_ListValue"><rect codeLine="26" fill="#F1F1F1" height="80.5938" id="ListValue" rx="2.5" ry="2.5" style="stroke:#181818;stroke-width:0.5;" width="149" x="443" y="656.28"/><ellipse cx="483.2" cy="672.28" fill="#ADD1B2" rx="11" ry="11" style="stroke:#181818;stroke-width:1.0;"/><path d="M486.1688,677.9206 Q485.5906,678.2175 484.95,678.3581 Q484.3094,678.5144 483.6063,678.5144 Q481.1063,678.5144 479.7781,676.8738 Q478.4656,675.2175 478.4656,672.0925 Q478.4656,668.9675 479.7781,667.3113 Q481.1063,665.655 483.6063,665.655 Q484.3094,665.655 484.95,665.8113 Q485.6063,665.9675 486.1688,666.2644 L486.1688,668.9831 Q485.5438,668.405 484.95,668.1394 Q484.3563,667.8581 483.7313,667.8581 Q482.3875,667.8581 481.7,668.9363 Q481.0125,669.9988 481.0125,672.0925 Q481.0125,674.1863 481.7,675.2644 Q482.3875,676.3269 483.7313,676.3269 Q484.3563,676.3269 484.95,676.0613 Q485.5438,675.78 486.1688,675.2019 L486.1688,677.9206 Z " fill="#000000"/><text fill="#000000" font-family="sans-serif" font-size="14" lengthAdjust="spacing" textLength="61" x="502.8" y="677.1267">ListValue</text><line style="stroke:#181818;stroke-width:0.5;" x1="444" x2="591" y1="688.28" y2="688.28"/><text fill="#000000" font-family="sans-serif" font-size="14" lengthAdjust="spacing" textLength="137" x="449" y="705.2751">displayValue : string</text><text fill="#000000" font-family="sans-serif" font-size="14" lengthAdjust="spacing" textLength="88" x="449" y="721.572">value : string</text><line style="stroke:#181818;stroke-width:0.5;" x1="444" x2="591" y1="728.8738" y2="728.8738"/></g></a><!--class CodeList--><a href="" target="_top" title="None" xlink:actuate="onRequest" xlink:href="" xlink:show="new" xlink:title="None" xlink:type="simple"><g id="elem_CodeList"><rect codeLine="31" fill="#F1F1F1" height="96.8906" id="CodeList" rx="2.5" ry="2.5" style="stroke:#181818;stroke-width:0.5;" width="181" x="627" y="648.13"/><ellipse cx="683.25" cy="664.13" fill="#ADD1B2" rx="11" ry="11" style="stroke:#181818;stroke-width:1.0;"/><path d="M686.2188,669.7706 Q685.6406,670.0675 685,670.2081 Q684.3594,670.3644 683.6563,670.3644 Q681.1563,670.3644 679.8281,668.7238 Q678.5156,667.0675 678.5156,663.9425 Q678.5156,660.8175 679.8281,659.1613 Q681.1563,657.505 683.6563,657.505 Q684.3594,657.505 685,657.6613 Q685.6563,657.8175 686.2188,658.1144 L686.2188,660.8331 Q685.5938,660.255 685,659.9894 Q684.4063,659.7081 683.7813,659.7081 Q682.4375,659.7081 681.75,660.7863 Q681.0625,661.8488 681.0625,663.9425 Q681.0625,666.0363 681.75,667.1144 Q682.4375,668.1769 683.7813,668.1769 Q684.4063,668.1769 685,667.9113 Q685.5938,667.63 686.2188,667.0519 L686.2188,669.7706 Z " fill="#000000"/><text fill="#000000" font-family="sans-serif" font-size="14" lengthAdjust="spacing" textLength="60" x="703.75" y="668.9767">CodeList</text><line style="stroke:#181818;stroke-width:0.5;" x1="628" x2="807" y1="680.13" y2="680.13"/><text fill="#000000" font-family="sans-serif" font-size="14" lengthAdjust="spacing" textLength="169" x="633" y="697.1251">submissionValue : string</text><text fill="#000000" font-family="sans-serif" font-size="14" lengthAdjust="spacing" textLength="121" x="633" y="713.422">conceptId : string</text><text fill="#000000" font-family="sans-serif" font-size="14" lengthAdjust="spacing" textLength="57" x="633" y="729.7189">href : uri</text><line style="stroke:#181818;stroke-width:0.5;" x1="628" x2="807" y1="737.0206" y2="737.0206"/></g></a><!--class DataCollectionGroup--><a href="" target="_top" title="None" xlink:actuate="onRequest" xlink:href="" xlink:show="new" xlink:title="None" xlink:type="simple"><g id="elem_DataCollectionGroup"><rect codeLine="36" fill="#F1F1F1" height="243.5625" id="DataCollectionGroup" rx="2.5" ry="2.5" style="stroke:#181818;stroke-width:0.5;" width="371" x="236" y="7"/><ellipse cx="345.75" cy="23" fill="#ADD1B2" rx="11" ry="11" style="stroke:#181818;stroke-width:1.0;"/><path d="M348.7188,28.6406 Q348.1406,28.9375 347.5,29.0781 Q346.8594,29.2344 346.1563,29.2344 Q343.6563,29.2344 342.3281,27.5938 Q341.0156,25.9375 341.0156,22.8125 Q341.0156,19.6875 342.3281,18.0313 Q343.6563,16.375 346.1563,16.375 Q346.8594,16.375 347.5,16.5313 Q348.1563,16.6875 348.7188,16.9844 L348.7188,19.7031 Q348.0938,19.125 347.5,18.8594 Q346.9063,18.5781 346.2813,18.5781 Q344.9375,18.5781 344.25,19.6563 Q343.5625,20.7188 343.5625,22.8125 Q343.5625,24.9063 344.25,25.9844 Q344.9375,27.0469 346.2813,27.0469 Q346.9063,27.0469 347.5,26.7813 Q348.0938,26.5 348.7188,25.9219 L348.7188,28.6406 Z " fill="#000000"/><text fill="#000000" font-family="sans-serif" font-size="14" lengthAdjust="spacing" textLength="143" x="366.25" y="27.8467">DataCollectionGroup</text><line style="stroke:#181818;stroke-width:0.5;" x1="237" x2="606" y1="39" y2="39"/><text fill="#000000" font-family="sans-serif" font-size="14" lengthAdjust="spacing" textLength="136" x="242" y="55.9951">packageDate : date</text><text fill="#000000" font-family="sans-serif" font-size="14" lengthAdjust="spacing" textLength="239" x="242" y="72.292">packageType : PackageTypeEnum</text><text fill="#000000" font-family="sans-serif" font-size="14" lengthAdjust="spacing" textLength="224" x="242" y="88.5889">collectionSpecializationId : string</text><text fill="#000000" font-family="sans-serif" font-size="14" lengthAdjust="spacing" textLength="128" x="242" y="104.8857">shortName : string</text><text fill="#000000" font-family="sans-serif" font-size="14" lengthAdjust="spacing" textLength="113" x="242" y="121.1826">standard : string</text><text fill="#000000" font-family="sans-serif" font-size="14" lengthAdjust="spacing" textLength="197" x="242" y="137.4795">standardStartVersion : string</text><text fill="#000000" font-family="sans-serif" font-size="14" lengthAdjust="spacing" textLength="192" x="242" y="153.7764">standardEndVersion : string</text><text fill="#000000" font-family="sans-serif" font-size="14" lengthAdjust="spacing" textLength="359" x="242" y="170.0732">implementationOption : implementationOptionEnum</text><text fill="#000000" font-family="sans-serif" font-size="14" lengthAdjust="spacing" textLength="111" x="242" y="186.3701">scenario : string</text><text fill="#000000" font-family="sans-serif" font-size="14" lengthAdjust="spacing" textLength="103" x="242" y="202.667">domain : string</text><text fill="#000000" font-family="sans-serif" font-size="14" lengthAdjust="spacing" textLength="197" x="242" y="218.9639">biomedicalConceptId : string</text><text fill="#000000" font-family="sans-serif" font-size="14" lengthAdjust="spacing" textLength="247" x="242" y="235.2607">sdtmDatasetSpecializationId : string</text><line style="stroke:#181818;stroke-width:0.5;" x1="237" x2="606" y1="242.5625" y2="242.5625"/></g></a><!--link DataCollectionItem to SDTMTarget--><g id="link_DataCollectionItem_SDTMTarget"><path codeLine="20" d="M265.1747,572.8217 C228.0147,601.9417 204.2833,620.5299 174.0933,644.1799 " fill="none" id="DataCollectionItem-SDTMTarget" style="stroke:#181818;stroke-width:1.0;"/><polygon fill="#181818" points="274.62,565.42,267.4301,565.9724,265.1747,572.8217,272.3646,572.2693,274.62,565.42" style="stroke:#181818;stroke-width:1.0;"/><polygon fill="#181818" points="169.37,647.88,178.9216,645.4787,173.3061,644.7966,173.9882,639.181,169.37,647.88" style="stroke:#181818;stroke-width:1.0;"/><text fill="#000000" font-family="sans-serif" font-size="13" lengthAdjust="spacing" textLength="74" x="229.5" y="614.1969">sdtmTarget</text><text fill="#000000" font-family="sans-serif" font-size="13" lengthAdjust="spacing" textLength="24" x="152.2423" y="637.0538">0..1</text></g><!--link DataCollectionItem to PrepopulatedValue--><g id="link_DataCollectionItem_PrepopulatedValue"><path codeLine="25" d="M358.492,582.4541 C354.352,592.4341 355.03,591.36 351.5,601.13 C345.1,618.84 340.9908,633.1156 336.7608,650.2156 " fill="none" id="DataCollectionItem-PrepopulatedValue" style="stroke:#181818;stroke-width:1.0;"/><polygon fill="#181818" points="363.09,571.37,357.0963,575.3794,358.492,582.4541,364.4857,578.4447,363.09,571.37" style="stroke:#181818;stroke-width:1.0;"/><polygon fill="#181818" points="335.32,656.04,341.3641,648.2639,336.5207,651.1863,333.5982,646.3428,335.32,656.04" style="stroke:#181818;stroke-width:1.0;"/><text fill="#000000" font-family="sans-serif" font-size="13" lengthAdjust="spacing" textLength="121" x="352.5" y="614.1969">prepopulatedValue</text><text fill="#000000" font-family="sans-serif" font-size="13" lengthAdjust="spacing" textLength="24" x="310.7933" y="645.1618">0..1</text></g><!--link DataCollectionItem to ListValue--><g id="link_DataCollectionItem_ListValue"><path codeLine="30" d="M473.3139,582.6945 C485.2639,613.2245 490.7032,627.1127 499.7832,650.3127 " fill="none" id="DataCollectionItem-ListValue" style="stroke:#181818;stroke-width:1.0;"/><polygon fill="#181818" points="468.94,571.52,467.4021,578.5652,473.3139,582.6945,474.8518,575.6493,468.94,571.52" style="stroke:#181818;stroke-width:1.0;"/><polygon fill="#181818" points="501.97,655.9,502.4147,646.0612,500.1477,651.2439,494.965,648.9769,501.97,655.9" style="stroke:#181818;stroke-width:1.0;"/><text fill="#000000" font-family="sans-serif" font-size="13" lengthAdjust="spacing" textLength="56" x="487.5" y="614.1969">valueList</text><text fill="#000000" font-family="sans-serif" font-size="13" lengthAdjust="spacing" textLength="23" x="474.6621" y="645.2993">0..*</text></g><!--link DataCollectionItem to CodeList--><g id="link_DataCollectionItem_CodeList"><path codeLine="50" d="M577.01,579.1766 C609.63,606.2066 628.5094,621.8525 655.0194,643.8125 " fill="none" id="DataCollectionItem-CodeList" style="stroke:#181818;stroke-width:1.0;"/><polygon fill="#181818" points="567.77,571.52,569.8378,578.4283,577.01,579.1766,574.9422,572.2683,567.77,571.52" style="stroke:#181818;stroke-width:1.0;"/><polygon fill="#181818" points="659.64,647.64,655.2608,638.8183,655.7895,644.4504,650.1574,644.9791,659.64,647.64" style="stroke:#181818;stroke-width:1.0;"/><text fill="#000000" font-family="sans-serif" font-size="13" lengthAdjust="spacing" textLength="49" x="623.5" y="614.1969">codelist</text><text fill="#000000" font-family="sans-serif" font-size="13" lengthAdjust="spacing" textLength="24" x="626.2526" y="637.1323">0..1</text></g><!--link DataCollectionGroup to DataCollectionItem--><g id="link_DataCollectionGroup_DataCollectionItem"><path codeLine="51" d="M421.5,262.67 C421.5,287.76 421.5,296.19 421.5,321.28 " fill="none" id="DataCollectionGroup-DataCollectionItem" style="stroke:#181818;stroke-width:1.0;"/><polygon fill="#181818" points="421.5,250.67,417.5,256.67,421.5,262.67,425.5,256.67,421.5,250.67" style="stroke:#181818;stroke-width:1.0;"/><polygon fill="#181818" points="421.5,327.28,425.5,318.28,421.5,322.28,417.5,318.28,421.5,327.28" style="stroke:#181818;stroke-width:1.0;"/><text fill="#000000" font-family="sans-serif" font-size="13" lengthAdjust="spacing" textLength="36" x="422.5" y="293.6369">items</text><text fill="#000000" font-family="sans-serif" font-size="13" lengthAdjust="spacing" textLength="23" x="397.7992" y="316.4552">1..*</text></g><!--SRC=[bLHDZzem4Btlhx1oH5fKhdkeL05gL-hIbK1S40TZ3s5KVzMUh4eH_xqs2GifSTXomV4ypxpvU2CK3u4L4qvyR9K2GMZDCu4ks6frc5a3n_MQ7HvO_1ss24eUcU4Qs1CBvD6KZBLiRzmZtoYOzM1a33PLeC7Gs1e1Zfvb3lkhWf0eBU0tvJ3EM-soLkib-5cbD-0Z10r16KzjZEOcah9-lspeH-J6MWNST71Vx5q2jEirQGnJK-b_tYWm9UsomGEM1hSekA49baWXYvGOdEBxRoWbc2n5XO4QYj-ROqFg-23gTiydYvS5zoLGJvk39Ft564iyvPWhRqATgnQkGAlHS3XOtq3hg2_SkOIwydbyw1p2mUFZPrPy6Wv7HPls4oik_efpOgyUd7MLuWHooLK5FVcz9NikBT4rc1_XsC4WKdKtjsV6gKNtc3PzN_OHlidc7jb1qGeUIPvSfAjtScChwukUAQas6aE8_fV_NSzhmCx3DjegZzU3sixWgxULw-7YkFZ9IuYF4W-P_bWNe577w-MhGxNYFUpSWK2kyCz92FaKmivwwbjyWTAUyVAUVKxSqn9ywDDTWvqQUGU9sjNBzaJ_XslKt7NTKOOWm4Hvs-mojvfZDlO6hGOPTvkwk-cJcbEx0r1VmJ-YmSlOngaMyKETXhfxckgNereGNQwZ3uo7KFm5]--></g></svg>