<?xml version="1.0" encoding="us-ascii" standalone="no"?><svg xmlns="http://www.w3.org/2000/svg" xmlns:xlink="http://www.w3.org/1999/xlink" contentStyleType="text/css" height="464px" preserveAspectRatio="none" style="width:546px;height:464px;background:#FFFFFF;" version="1.1" viewBox="0 0 546 464" width="546px" zoomAndPan="magnify"><defs/><g><!--class BiomedicalConcept--><a href="" target="_top" title="None" xlink:actuate="onRequest" xlink:href="" xlink:show="new" xlink:title="None" xlink:type="simple"><g id="elem_BiomedicalConcept"><rect codeLine="1" fill="#F1F1F1" height="227.2656" id="BiomedicalConcept" rx="2.5" ry="2.5" style="stroke:#181818;stroke-width:0.5;" width="406" x="117.5" y="7"/><ellipse cx="249.25" cy="23" fill="#ADD1B2" rx="11" ry="11" style="stroke:#181818;stroke-width:1.0;"/><path d="M252.2188,28.6406 Q251.6406,28.9375 251,29.0781 Q250.3594,29.2344 249.6563,29.2344 Q247.1563,29.2344 245.8281,27.5938 Q244.5156,25.9375 244.5156,22.8125 Q244.5156,19.6875 245.8281,18.0313 Q247.1563,16.375 249.6563,16.375 Q250.3594,16.375 251,16.5313 Q251.6563,16.6875 252.2188,16.9844 L252.2188,19.7031 Q251.5938,19.125 251,18.8594 Q250.4063,18.5781 249.7813,18.5781 Q248.4375,18.5781 247.75,19.6563 Q247.0625,20.7188 247.0625,22.8125 Q247.0625,24.9063 247.75,25.9844 Q248.4375,27.0469 249.7813,27.0469 Q250.4063,27.0469 251,26.7813 Q251.5938,26.5 252.2188,25.9219 L252.2188,28.6406 Z " fill="#000000"/><text fill="#000000" font-family="sans-serif" font-size="14" lengthAdjust="spacing" textLength="134" x="269.75" y="27.8467">BiomedicalConcept</text><line style="stroke:#181818;stroke-width:0.5;" x1="118.5" x2="522.5" y1="39" y2="39"/><text fill="#000000" font-family="sans-serif" font-size="14" lengthAdjust="spacing" textLength="136" x="123.5" y="55.9951">packageDate : date</text><text fill="#000000" font-family="sans-serif" font-size="14" lengthAdjust="spacing" textLength="239" x="123.5" y="72.292">packageType : PackageTypeEnum</text><text fill="#000000" font-family="sans-serif" font-size="14" lengthAdjust="spacing" textLength="121" x="123.5" y="88.5889">conceptId : string</text><text fill="#000000" font-family="sans-serif" font-size="14" lengthAdjust="spacing" textLength="114" x="123.5" y="104.8857">ncitCode : string</text><text fill="#000000" font-family="sans-serif" font-size="14" lengthAdjust="spacing" textLength="57" x="123.5" y="121.1826">href : uri</text><text fill="#000000" font-family="sans-serif" font-size="14" lengthAdjust="spacing" textLength="168" x="123.5" y="137.4795">parentConceptId : string</text><text fill="#000000" font-family="sans-serif" font-size="14" lengthAdjust="spacing" textLength="167" x="123.5" y="153.7764">categories : string  [1..*]</text><text fill="#000000" font-family="sans-serif" font-size="14" lengthAdjust="spacing" textLength="128" x="123.5" y="170.0732">shortName : string</text><text fill="#000000" font-family="sans-serif" font-size="14" lengthAdjust="spacing" textLength="164" x="123.5" y="186.3701">synonyms : string  [0..*]</text><text fill="#000000" font-family="sans-serif" font-size="14" lengthAdjust="spacing" textLength="394" x="123.5" y="202.667">resultScales : BiomedicalConceptResultScaleEnum  [0..*]</text><text fill="#000000" font-family="sans-serif" font-size="14" lengthAdjust="spacing" textLength="115" x="123.5" y="218.9639">definition : string</text><line style="stroke:#181818;stroke-width:0.5;" x1="118.5" x2="522.5" y1="226.2656" y2="226.2656"/></g></a><!--class DataElementConcept--><a href="" target="_top" title="None" xlink:actuate="onRequest" xlink:href="" xlink:show="new" xlink:title="None" xlink:type="simple"><g id="elem_DataElementConcept"><rect codeLine="14" fill="#F1F1F1" height="145.7813" id="DataElementConcept" rx="2.5" ry="2.5" style="stroke:#181818;stroke-width:0.5;" width="343" x="7" y="311.27"/><ellipse cx="100.25" cy="327.27" fill="#ADD1B2" rx="11" ry="11" style="stroke:#181818;stroke-width:1.0;"/><path d="M103.2188,332.9106 Q102.6406,333.2075 102,333.3481 Q101.3594,333.5044 100.6563,333.5044 Q98.1563,333.5044 96.8281,331.8638 Q95.5156,330.2075 95.5156,327.0825 Q95.5156,323.9575 96.8281,322.3013 Q98.1563,320.645 100.6563,320.645 Q101.3594,320.645 102,320.8013 Q102.6563,320.9575 103.2188,321.2544 L103.2188,323.9731 Q102.5938,323.395 102,323.1294 Q101.4063,322.8481 100.7813,322.8481 Q99.4375,322.8481 98.75,323.9263 Q98.0625,324.9888 98.0625,327.0825 Q98.0625,329.1763 98.75,330.2544 Q99.4375,331.3169 100.7813,331.3169 Q101.4063,331.3169 102,331.0513 Q102.5938,330.77 103.2188,330.1919 L103.2188,332.9106 Z " fill="#000000"/><text fill="#000000" font-family="sans-serif" font-size="14" lengthAdjust="spacing" textLength="148" x="120.75" y="332.1167">DataElementConcept</text><line style="stroke:#181818;stroke-width:0.5;" x1="8" x2="349" y1="343.27" y2="343.27"/><text fill="#000000" font-family="sans-serif" font-size="14" lengthAdjust="spacing" textLength="121" x="13" y="360.2651">conceptId : string</text><text fill="#000000" font-family="sans-serif" font-size="14" lengthAdjust="spacing" textLength="114" x="13" y="376.562">ncitCode : string</text><text fill="#000000" font-family="sans-serif" font-size="14" lengthAdjust="spacing" textLength="57" x="13" y="392.8589">href : uri</text><text fill="#000000" font-family="sans-serif" font-size="14" lengthAdjust="spacing" textLength="128" x="13" y="409.1557">shortName : string</text><text fill="#000000" font-family="sans-serif" font-size="14" lengthAdjust="spacing" textLength="331" x="13" y="425.4526">dataType : DataElementConceptDataTypeEnum</text><text fill="#000000" font-family="sans-serif" font-size="14" lengthAdjust="spacing" textLength="175" x="13" y="441.7495">exampleSet : string  [0..*]</text><line style="stroke:#181818;stroke-width:0.5;" x1="8" x2="349" y1="449.0513" y2="449.0513"/></g></a><!--class Coding--><a href="" target="_top" title="None" xlink:actuate="onRequest" xlink:href="" xlink:show="new" xlink:title="None" xlink:type="simple"><g id="elem_Coding"><rect codeLine="23" fill="#F1F1F1" height="96.8906" id="Coding" rx="2.5" ry="2.5" style="stroke:#181818;stroke-width:0.5;" width="154" x="385.5" y="335.71"/><ellipse cx="433.75" cy="351.71" fill="#ADD1B2" rx="11" ry="11" style="stroke:#181818;stroke-width:1.0;"/><path d="M436.7188,357.3506 Q436.1406,357.6475 435.5,357.7881 Q434.8594,357.9444 434.1563,357.9444 Q431.6563,357.9444 430.3281,356.3038 Q429.0156,354.6475 429.0156,351.5225 Q429.0156,348.3975 430.3281,346.7413 Q431.6563,345.085 434.1563,345.085 Q434.8594,345.085 435.5,345.2413 Q436.1563,345.3975 436.7188,345.6944 L436.7188,348.4131 Q436.0938,347.835 435.5,347.5694 Q434.9063,347.2881 434.2813,347.2881 Q432.9375,347.2881 432.25,348.3663 Q431.5625,349.4288 431.5625,351.5225 Q431.5625,353.6163 432.25,354.6944 Q432.9375,355.7569 434.2813,355.7569 Q434.9063,355.7569 435.5,355.4913 Q436.0938,355.21 436.7188,354.6319 L436.7188,357.3506 Z " fill="#000000"/><text fill="#000000" font-family="sans-serif" font-size="14" lengthAdjust="spacing" textLength="49" x="454.25" y="356.5567">Coding</text><line style="stroke:#181818;stroke-width:0.5;" x1="386.5" x2="538.5" y1="367.71" y2="367.71"/><text fill="#000000" font-family="sans-serif" font-size="14" lengthAdjust="spacing" textLength="87" x="391.5" y="384.7051">code : string</text><text fill="#000000" font-family="sans-serif" font-size="14" lengthAdjust="spacing" textLength="102" x="391.5" y="401.002">system : string</text><text fill="#000000" font-family="sans-serif" font-size="14" lengthAdjust="spacing" textLength="142" x="391.5" y="417.2989">systemName : string</text><line style="stroke:#181818;stroke-width:0.5;" x1="386.5" x2="538.5" y1="424.6006" y2="424.6006"/></g></a><!--link BiomedicalConcept to DataElementConcept--><g id="link_BiomedicalConcept_DataElementConcept"><path codeLine="22" d="M253.5245,244.986 C239.4145,270.976 233.3633,282.1173 220.4933,305.8173 " fill="none" id="BiomedicalConcept-DataElementConcept" style="stroke:#181818;stroke-width:1.0;"/><polygon fill="#181818" points="259.25,234.44,252.8719,237.8045,253.5245,244.986,259.9026,241.6215,259.25,234.44" style="stroke:#181818;stroke-width:1.0;"/><polygon fill="#181818" points="217.63,311.09,225.4401,305.0898,220.0161,306.6961,218.4098,301.2721,217.63,311.09" style="stroke:#181818;stroke-width:1.0;"/><text fill="#000000" font-family="sans-serif" font-size="13" lengthAdjust="spacing" textLength="142" x="242.5" y="277.3369">dataElementConcepts</text><text fill="#000000" font-family="sans-serif" font-size="13" lengthAdjust="spacing" textLength="23" x="197.3498" y="300.2323">0..*</text></g><!--link BiomedicalConcept to Coding--><g id="link_BiomedicalConcept_Coding"><path codeLine="28" d="M387.477,244.9852 C406.697,280.3752 418.2859,301.7377 433.6759,330.0677 " fill="none" id="BiomedicalConcept-Coding" style="stroke:#181818;stroke-width:1.0;"/><polygon fill="#181818" points="381.75,234.44,381.0984,241.6216,387.477,244.9852,388.1286,237.8036,381.75,234.44" style="stroke:#181818;stroke-width:1.0;"/><polygon fill="#181818" points="436.54,335.34,435.7587,325.5222,434.1532,330.9464,428.729,329.341,436.54,335.34" style="stroke:#181818;stroke-width:1.0;"/><text fill="#000000" font-family="sans-serif" font-size="13" lengthAdjust="spacing" textLength="42" x="404.5" y="277.3369">coding</text><text fill="#000000" font-family="sans-serif" font-size="13" lengthAdjust="spacing" textLength="23" x="408.2722" y="324.4969">0..*</text></g><!--SRC=[jLAnReCm4Dtv2ijZf4Jjcg53IOOkKTLqGmoMVH2hzXdPHYf2_7jDIKI22UbIBzYyfxjtxnvNp3b2NwNH82HdAZN8eVAKP5bxC0XTdfCs8U6qXGGbEb8n_iLAs34FP4j4_o5pXC-cwWdluskFjPvm-T3kJGIcyrPYEI4Wbpur0kxX9mj5m6eh8nKMqAUFwlEWlpHMWhjYPC-RpIg_uRcJiVx0z5qXha63ZRufynILiU1gvO_1wD-6aUyV8pwuDLD3G25HUcdmMakNy66NOJ5ihq2Fqoyiy__yVsXOI0uxPoIMl3k3Cv61RwOh1KVmiTLTCXVbrNhzGcZFeFFsR0aLqMz7Buw6-KEJHHV5GYwS1xsCJctwmnWNJK4w7wu_]--></g></svg>