<svg xmlns="http://www.w3.org/2000/svg" xmlns:xlink="http://www.w3.org/1999/xlink" contentStyleType="text/css" data-diagram-type="CLASS" height="752px" preserveAspectRatio="none" style="width:833px;height:752px;background:#FFFFFF;" version="1.1" viewBox="0 0 833 752" width="833px" zoomAndPan="magnify"><defs/><g><!--class DataCollectionItem--><a href="" target="_top" title="None" xlink:actuate="onRequest" xlink:href="" xlink:show="new" xlink:title="None" xlink:type="simple"><g class="entity" data-entity="DataCollectionItem" data-source-line="1" data-uid="ent0002" id="entity_DataCollectionItem"><rect fill="#F1F1F1" height="243.5625" rx="2.5" ry="2.5" style="stroke:#181818;stroke-width:0.5;" width="300.5996" x="282.1" y="327.57"/><ellipse cx="360.8773" cy="343.57" fill="#ADD1B2" rx="11" ry="11" style="stroke:#181818;stroke-width:1;"/><path d="M363.8461,349.2106 Q363.268,349.5075 362.6273,349.6481 Q361.9867,349.8044 361.2836,349.8044 Q358.7836,349.8044 357.4555,348.1638 Q356.143,346.5075 356.143,343.3825 Q356.143,340.2575 357.4555,338.6013 Q358.7836,336.945 361.2836,336.945 Q361.9867,336.945 362.6273,337.1013 Q363.2836,337.2575 363.8461,337.5544 L363.8461,340.2731 Q363.2211,339.695 362.6273,339.4294 Q362.0336,339.1481 361.4086,339.1481 Q360.0648,339.1481 359.3773,340.2263 Q358.6898,341.2888 358.6898,343.3825 Q358.6898,345.4763 359.3773,346.5544 Q360.0648,347.6169 361.4086,347.6169 Q362.0336,347.6169 362.6273,347.3513 Q363.2211,347.07 363.8461,346.4919 L363.8461,349.2106 Z " fill="#000000"/><text fill="#000000" font-family="sans-serif" font-size="14" lengthAdjust="spacing" textLength="134.5449" x="381.3773" y="348.4167">DataCollectionItem</text><line style="stroke:#181818;stroke-width:0.5;" x1="283.1" x2="581.6996" y1="359.57" y2="359.57"/><text fill="#000000" font-family="sans-serif" font-size="14" lengthAdjust="spacing" textLength="93.5088" x="288.1" y="376.5651">name : string</text><text fill="#000000" font-family="sans-serif" font-size="14" lengthAdjust="spacing" textLength="151.5869" x="288.1" y="392.862">variableName : string</text><text fill="#000000" font-family="sans-serif" font-size="14" lengthAdjust="spacing" textLength="214.2178" x="288.1" y="409.1589">dataElementConceptId : string</text><text fill="#000000" font-family="sans-serif" font-size="14" lengthAdjust="spacing" textLength="145.2295" x="288.1" y="425.4557">questionText : string</text><text fill="#000000" font-family="sans-serif" font-size="14" lengthAdjust="spacing" textLength="105.0273" x="288.1" y="441.7526">prompt : string</text><text fill="#000000" font-family="sans-serif" font-size="14" lengthAdjust="spacing" textLength="157.5547" x="288.1" y="458.0495">orderNumber : integer</text><text fill="#000000" font-family="sans-serif" font-size="14" lengthAdjust="spacing" textLength="204.0117" x="288.1" y="474.3464">mandatoryVariable : boolean</text><text fill="#000000" font-family="sans-serif" font-size="14" lengthAdjust="spacing" textLength="288.5996" x="288.1" y="490.6432">dataType : CollectionItemDataTypeEnum</text><text fill="#000000" font-family="sans-serif" font-size="14" lengthAdjust="spacing" textLength="108.3633" x="288.1" y="506.9401">length : integer</text><text fill="#000000" font-family="sans-serif" font-size="14" lengthAdjust="spacing" textLength="176.2578" x="288.1" y="523.237">significantDigits : integer</text><text fill="#000000" font-family="sans-serif" font-size="14" lengthAdjust="spacing" textLength="168.9775" x="288.1" y="539.5339">displayHidden : boolean</text><text fill="#000000" font-family="sans-serif" font-size="14" lengthAdjust="spacing" textLength="249.9629" x="288.1" y="555.8307">selectionType : SelectionTypeEnum</text><line style="stroke:#181818;stroke-width:0.5;" x1="283.1" x2="581.6996" y1="563.1325" y2="563.1325"/></g></a><!--class SDTMTarget--><a href="" target="_top" title="None" xlink:actuate="onRequest" xlink:href="" xlink:show="new" xlink:title="None" xlink:type="simple"><g class="entity" data-entity="SDTMTarget" data-source-line="15" data-uid="ent0003" id="entity_SDTMTarget"><rect fill="#F1F1F1" height="96.8906" rx="2.5" ry="2.5" style="stroke:#181818;stroke-width:0.5;" width="210.8096" x="7" y="648.13"/><ellipse cx="65.0679" cy="664.13" fill="#ADD1B2" rx="11" ry="11" style="stroke:#181818;stroke-width:1;"/><path d="M68.0366,669.7706 Q67.4585,670.0675 66.8179,670.2081 Q66.1772,670.3644 65.4741,670.3644 Q62.9741,670.3644 61.646,668.7238 Q60.3335,667.0675 60.3335,663.9425 Q60.3335,660.8175 61.646,659.1613 Q62.9741,657.505 65.4741,657.505 Q66.1772,657.505 66.8179,657.6613 Q67.4741,657.8175 68.0366,658.1144 L68.0366,660.8331 Q67.4116,660.255 66.8179,659.9894 Q66.2241,659.7081 65.5991,659.7081 Q64.2554,659.7081 63.5679,660.7863 Q62.8804,661.8488 62.8804,663.9425 Q62.8804,666.0363 63.5679,667.1144 Q64.2554,668.1769 65.5991,668.1769 Q66.2241,668.1769 66.8179,667.9113 Q67.4116,667.63 68.0366,667.0519 L68.0366,669.7706 Z " fill="#000000"/><text fill="#000000" font-family="sans-serif" font-size="14" lengthAdjust="spacing" textLength="86.1738" x="85.5679" y="668.9767">SDTMTarget</text><line style="stroke:#181818;stroke-width:0.5;" x1="8" x2="216.8096" y1="680.13" y2="680.13"/><text fill="#000000" font-family="sans-serif" font-size="14" lengthAdjust="spacing" textLength="165.8877" x="13" y="697.1251">sdtmAnnotation : string</text><text fill="#000000" font-family="sans-serif" font-size="14" lengthAdjust="spacing" textLength="198.8096" x="13" y="713.422">sdtmVariables : string  [0..*]</text><text fill="#000000" font-family="sans-serif" font-size="14" lengthAdjust="spacing" textLength="195.0703" x="13" y="729.7189">sdtmTargetMapping : string</text><line style="stroke:#181818;stroke-width:0.5;" x1="8" x2="216.8096" y1="737.0206" y2="737.0206"/></g></a><!--class PrepopulatedValue--><a href="" target="_top" title="None" xlink:actuate="onRequest" xlink:href="" xlink:show="new" xlink:title="None" xlink:type="simple"><g class="entity" data-entity="PrepopulatedValue" data-source-line="21" data-uid="ent0005" id="entity_PrepopulatedValue"><rect fill="#F1F1F1" height="80.5938" rx="2.5" ry="2.5" style="stroke:#181818;stroke-width:0.5;" width="165.0137" x="252.9" y="656.28"/><ellipse cx="267.9" cy="672.28" fill="#ADD1B2" rx="11" ry="11" style="stroke:#181818;stroke-width:1;"/><path d="M270.8688,677.9206 Q270.2906,678.2175 269.65,678.3581 Q269.0094,678.5144 268.3063,678.5144 Q265.8063,678.5144 264.4781,676.8738 Q263.1656,675.2175 263.1656,672.0925 Q263.1656,668.9675 264.4781,667.3113 Q265.8063,665.655 268.3063,665.655 Q269.0094,665.655 269.65,665.8113 Q270.3063,665.9675 270.8688,666.2644 L270.8688,668.9831 Q270.2438,668.405 269.65,668.1394 Q269.0563,667.8581 268.4313,667.8581 Q267.0875,667.8581 266.4,668.9363 Q265.7125,669.9988 265.7125,672.0925 Q265.7125,674.1863 266.4,675.2644 Q267.0875,676.3269 268.4313,676.3269 Q269.0563,676.3269 269.65,676.0613 Q270.2438,675.78 270.8688,675.2019 L270.8688,677.9206 Z " fill="#000000"/><text fill="#000000" font-family="sans-serif" font-size="14" lengthAdjust="spacing" textLength="133.0137" x="281.9" y="677.1267">PrepopulatedValue</text><line style="stroke:#181818;stroke-width:0.5;" x1="253.9" x2="416.9137" y1="688.28" y2="688.28"/><text fill="#000000" font-family="sans-serif" font-size="14" lengthAdjust="spacing" textLength="92.0459" x="258.9" y="705.2751">value : string</text><text fill="#000000" font-family="sans-serif" font-size="14" lengthAdjust="spacing" textLength="122.6436" x="258.9" y="721.572">conceptId : string</text><line style="stroke:#181818;stroke-width:0.5;" x1="253.9" x2="416.9137" y1="728.8738" y2="728.8738"/></g></a><!--class ListValue--><a href="" target="_top" title="None" xlink:actuate="onRequest" xlink:href="" xlink:show="new" xlink:title="None" xlink:type="simple"><g class="entity" data-entity="ListValue" data-source-line="26" data-uid="ent0007" id="entity_ListValue"><rect fill="#F1F1F1" height="80.5938" rx="2.5" ry="2.5" style="stroke:#181818;stroke-width:0.5;" width="155.0488" x="452.88" y="656.28"/><ellipse cx="494.4498" cy="672.28" fill="#ADD1B2" rx="11" ry="11" style="stroke:#181818;stroke-width:1;"/><path d="M497.4185,677.9206 Q496.8404,678.2175 496.1998,678.3581 Q495.5592,678.5144 494.856,678.5144 Q492.356,678.5144 491.0279,676.8738 Q489.7154,675.2175 489.7154,672.0925 Q489.7154,668.9675 491.0279,667.3113 Q492.356,665.655 494.856,665.655 Q495.5592,665.655 496.1998,665.8113 Q496.856,665.9675 497.4185,666.2644 L497.4185,668.9831 Q496.7935,668.405 496.1998,668.1394 Q495.606,667.8581 494.981,667.8581 Q493.6373,667.8581 492.9498,668.9363 Q492.2623,669.9988 492.2623,672.0925 Q492.2623,674.1863 492.9498,675.2644 Q493.6373,676.3269 494.981,676.3269 Q495.606,676.3269 496.1998,676.0613 Q496.7935,675.78 497.4185,675.2019 L497.4185,677.9206 Z " fill="#000000"/><text fill="#000000" font-family="sans-serif" font-size="14" lengthAdjust="spacing" textLength="64.0049" x="514.3542" y="677.1267">ListValue</text><line style="stroke:#181818;stroke-width:0.5;" x1="453.88" x2="606.9288" y1="688.28" y2="688.28"/><text fill="#000000" font-family="sans-serif" font-size="14" lengthAdjust="spacing" textLength="143.0488" x="458.88" y="705.2751">displayValue : string</text><text fill="#000000" font-family="sans-serif" font-size="14" lengthAdjust="spacing" textLength="92.0459" x="458.88" y="721.572">value : string</text><line style="stroke:#181818;stroke-width:0.5;" x1="453.88" x2="606.9288" y1="728.8738" y2="728.8738"/></g></a><!--class CodeList--><a href="" target="_top" title="None" xlink:actuate="onRequest" xlink:href="" xlink:show="new" xlink:title="None" xlink:type="simple"><g class="entity" data-entity="CodeList" data-source-line="31" data-uid="ent0009" id="entity_CodeList"><rect fill="#F1F1F1" height="96.8906" rx="2.5" ry="2.5" style="stroke:#181818;stroke-width:0.5;" width="183.835" x="642.49" y="648.13"/><ellipse cx="700.0007" cy="664.13" fill="#ADD1B2" rx="11" ry="11" style="stroke:#181818;stroke-width:1;"/><path d="M702.9695,669.7706 Q702.3914,670.0675 701.7507,670.2081 Q701.1101,670.3644 700.407,670.3644 Q697.907,670.3644 696.5789,668.7238 Q695.2664,667.0675 695.2664,663.9425 Q695.2664,660.8175 696.5789,659.1613 Q697.907,657.505 700.407,657.505 Q701.1101,657.505 701.7507,657.6613 Q702.407,657.8175 702.9695,658.1144 L702.9695,660.8331 Q702.3445,660.255 701.7507,659.9894 Q701.157,659.7081 700.532,659.7081 Q699.1882,659.7081 698.5007,660.7863 Q697.8132,661.8488 697.8132,663.9425 Q697.8132,666.0363 698.5007,667.1144 Q699.1882,668.1769 700.532,668.1769 Q701.157,668.1769 701.7507,667.9113 Q702.3445,667.63 702.9695,667.0519 L702.9695,669.7706 Z " fill="#000000"/><text fill="#000000" font-family="sans-serif" font-size="14" lengthAdjust="spacing" textLength="60.3135" x="720.5007" y="668.9767">CodeList</text><line style="stroke:#181818;stroke-width:0.5;" x1="643.49" x2="825.325" y1="680.13" y2="680.13"/><text fill="#000000" font-family="sans-serif" font-size="14" lengthAdjust="spacing" textLength="171.835" x="648.49" y="697.1251">submissionValue : string</text><text fill="#000000" font-family="sans-serif" font-size="14" lengthAdjust="spacing" textLength="122.6436" x="648.49" y="713.422">conceptId : string</text><text fill="#000000" font-family="sans-serif" font-size="14" lengthAdjust="spacing" textLength="60.3066" x="648.49" y="729.7189">href : uri</text><line style="stroke:#181818;stroke-width:0.5;" x1="643.49" x2="825.325" y1="737.0206" y2="737.0206"/></g></a><!--class DataCollectionGroup--><a href="" target="_top" title="None" xlink:actuate="onRequest" xlink:href="" xlink:show="new" xlink:title="None" xlink:type="simple"><g class="entity" data-entity="DataCollectionGroup" data-source-line="36" data-uid="ent0010" id="entity_DataCollectionGroup"><rect fill="#F1F1F1" height="243.5625" rx="2.5" ry="2.5" style="stroke:#181818;stroke-width:0.5;" width="381.1475" x="241.83" y="7"/><ellipse cx="355.351" cy="23" fill="#ADD1B2" rx="11" ry="11" style="stroke:#181818;stroke-width:1;"/><path d="M358.3197,28.6406 Q357.7416,28.9375 357.101,29.0781 Q356.4604,29.2344 355.7572,29.2344 Q353.2572,29.2344 351.9291,27.5938 Q350.6166,25.9375 350.6166,22.8125 Q350.6166,19.6875 351.9291,18.0313 Q353.2572,16.375 355.7572,16.375 Q356.4604,16.375 357.101,16.5313 Q357.7572,16.6875 358.3197,16.9844 L358.3197,19.7031 Q357.6947,19.125 357.101,18.8594 Q356.5072,18.5781 355.8822,18.5781 Q354.5385,18.5781 353.851,19.6563 Q353.1635,20.7188 353.1635,22.8125 Q353.1635,24.9063 353.851,25.9844 Q354.5385,27.0469 355.8822,27.0469 Q356.5072,27.0469 357.101,26.7813 Q357.6947,26.5 358.3197,25.9219 L358.3197,28.6406 Z " fill="#000000"/><text fill="#000000" font-family="sans-serif" font-size="14" lengthAdjust="spacing" textLength="145.6055" x="375.851" y="27.8467">DataCollectionGroup</text><line style="stroke:#181818;stroke-width:0.5;" x1="242.83" x2="621.9775" y1="39" y2="39"/><text fill="#000000" font-family="sans-serif" font-size="14" lengthAdjust="spacing" textLength="137.9971" x="247.83" y="55.9951">packageDate : date</text><text fill="#000000" font-family="sans-serif" font-size="14" lengthAdjust="spacing" textLength="240.7754" x="247.83" y="72.292">packageType : PackageTypeEnum</text><text fill="#000000" font-family="sans-serif" font-size="14" lengthAdjust="spacing" textLength="231.0684" x="247.83" y="88.5889">collectionSpecializationId : string</text><text fill="#000000" font-family="sans-serif" font-size="14" lengthAdjust="spacing" textLength="131.0859" x="247.83" y="104.8857">shortName : string</text><text fill="#000000" font-family="sans-serif" font-size="14" lengthAdjust="spacing" textLength="116.1494" x="247.83" y="121.1826">standard : string</text><text fill="#000000" font-family="sans-serif" font-size="14" lengthAdjust="spacing" textLength="202.918" x="247.83" y="137.4795">standardStartVersion : string</text><text fill="#000000" font-family="sans-serif" font-size="14" lengthAdjust="spacing" textLength="195.3232" x="247.83" y="153.7764">standardEndVersion : string</text><text fill="#000000" font-family="sans-serif" font-size="14" lengthAdjust="spacing" textLength="369.1475" x="247.83" y="170.0732">implementationOption : implementationOptionEnum</text><text fill="#000000" font-family="sans-serif" font-size="14" lengthAdjust="spacing" textLength="113.0732" x="247.83" y="186.3701">scenario : string</text><text fill="#000000" font-family="sans-serif" font-size="14" lengthAdjust="spacing" textLength="106.2373" x="247.83" y="202.667">domain : string</text><text fill="#000000" font-family="sans-serif" font-size="14" lengthAdjust="spacing" textLength="201.2568" x="247.83" y="218.9639">biomedicalConceptId : string</text><text fill="#000000" font-family="sans-serif" font-size="14" lengthAdjust="spacing" textLength="254.0303" x="247.83" y="235.2607">sdtmDatasetSpecializationId : string</text><line style="stroke:#181818;stroke-width:0.5;" x1="242.83" x2="621.9775" y1="242.5625" y2="242.5625"/></g></a><!--link DataCollectionItem to SDTMTarget--><g class="link" data-entity-1="DataCollectionItem" data-entity-2="SDTMTarget" data-source-line="20" data-uid="lnk4" id="link_DataCollectionItem_SDTMTarget"><path codeLine="20" d="M272.2549,573.0788 C234.4749,602.0288 210.3027,620.5608 179.5927,644.0908" fill="none" id="DataCollectionItem-SDTMTarget" style="stroke:#181818;stroke-width:1;"/><polygon fill="#181818" points="281.78,565.78,274.5845,566.2544,272.2549,573.0788,279.4504,572.6044,281.78,565.78" style="stroke:#181818;stroke-width:1;"/><polygon fill="#181818" points="174.83,647.74,184.4069,645.4414,178.7989,644.699,179.5413,639.0911,174.83,647.74" style="stroke:#181818;stroke-width:1;"/><text fill="#000000" font-family="sans-serif" font-size="13" lengthAdjust="spacing" textLength="75.3848" x="235.4" y="614.1969">sdtmTarget</text><text fill="#000000" font-family="sans-serif" font-size="13" lengthAdjust="spacing" textLength="24.8066" x="157.9778" y="636.8941">0..1</text></g><!--link DataCollectionItem to PrepopulatedValue--><g class="link" data-entity-1="DataCollectionItem" data-entity-2="PrepopulatedValue" data-source-line="25" data-uid="lnk6" id="link_DataCollectionItem_PrepopulatedValue"><path codeLine="25" d="M369.5562,582.5151 C365.3762,592.4751 366.03,591.39 362.4,601.13 C355.8,618.87 351.4058,633.1879 346.7858,650.2779" fill="none" id="DataCollectionItem-PrepopulatedValue" style="stroke:#181818;stroke-width:1;"/><polygon fill="#181818" points="374.2,571.45,368.1898,575.4346,369.5562,582.5151,375.5665,578.5304,374.2,571.45" style="stroke:#181818;stroke-width:1;"/><polygon fill="#181818" points="345.22,656.07,351.4301,648.4257,346.5248,651.2433,343.7073,646.338,345.22,656.07" style="stroke:#181818;stroke-width:1;"/><text fill="#000000" font-family="sans-serif" font-size="13" lengthAdjust="spacing" textLength="123.9253" x="363.4" y="614.1969">prepopulatedValue</text><text fill="#000000" font-family="sans-serif" font-size="13" lengthAdjust="spacing" textLength="24.8066" x="320.9246" y="645.1968">0..1</text></g><!--link DataCollectionItem to ListValue--><g class="link" data-entity-1="DataCollectionItem" data-entity-2="ListValue" data-source-line="30" data-uid="lnk8" id="link_DataCollectionItem_ListValue"><path codeLine="30" d="M485.2829,582.6632 C497.4829,613.1932 503.0537,627.1283 512.3237,650.3283" fill="none" id="DataCollectionItem-ListValue" style="stroke:#181818;stroke-width:1;"/><polygon fill="#181818" points="480.83,571.52,479.342,578.5759,485.2829,582.6632,486.7709,575.6073,480.83,571.52" style="stroke:#181818;stroke-width:1;"/><polygon fill="#181818" points="514.55,655.9,514.925,646.0583,512.6948,651.2569,507.4961,649.0267,514.55,655.9" style="stroke:#181818;stroke-width:1;"/><text fill="#000000" font-family="sans-serif" font-size="13" lengthAdjust="spacing" textLength="58.2334" x="500.4" y="614.1969">valueList</text><text fill="#000000" font-family="sans-serif" font-size="13" lengthAdjust="spacing" textLength="23.0356" x="487.1932" y="645.2993">0..*</text></g><!--link DataCollectionItem to CodeList--><g class="link" data-entity-1="DataCollectionItem" data-entity-2="CodeList" data-source-line="50" data-uid="lnk11" id="link_DataCollectionItem_CodeList"><path codeLine="50" d="M590.9547,579.0854 C624.2347,606.1154 643.6618,621.8983 670.7118,643.8583" fill="none" id="DataCollectionItem-CodeList" style="stroke:#181818;stroke-width:1;"/><polygon fill="#181818" points="581.64,571.52,583.7756,578.4076,590.9547,579.0854,588.8192,572.1978,581.64,571.52" style="stroke:#181818;stroke-width:1;"/><polygon fill="#181818" points="675.37,647.64,670.9038,638.862,671.4882,644.4886,665.8616,645.073,675.37,647.64" style="stroke:#181818;stroke-width:1;"/><text fill="#000000" font-family="sans-serif" font-size="13" lengthAdjust="spacing" textLength="50.4448" x="638.4" y="614.1969">codelist</text><text fill="#000000" font-family="sans-serif" font-size="13" lengthAdjust="spacing" textLength="24.8066" x="641.8785" y="637.1323">0..1</text></g><!--link DataCollectionGroup to DataCollectionItem--><g class="link" data-entity-1="DataCollectionGroup" data-entity-2="DataCollectionItem" data-source-line="51" data-uid="lnk12" id="link_DataCollectionGroup_DataCollectionItem"><path codeLine="51" d="M432.4,262.67 C432.4,287.76 432.4,296.19 432.4,321.28" fill="none" id="DataCollectionGroup-DataCollectionItem" style="stroke:#181818;stroke-width:1;"/><polygon fill="#181818" points="432.4,250.67,428.4,256.67,432.4,262.67,436.4,256.67,432.4,250.67" style="stroke:#181818;stroke-width:1;"/><polygon fill="#181818" points="432.4,327.28,436.4,318.28,432.4,322.28,428.4,318.28,432.4,327.28" style="stroke:#181818;stroke-width:1;"/><text fill="#000000" font-family="sans-serif" font-size="13" lengthAdjust="spacing" textLength="36.1436" x="433.4" y="293.6369">items</text><text fill="#000000" font-family="sans-serif" font-size="13" lengthAdjust="spacing" textLength="23.0356" x="408.7003" y="316.4552">1..*</text></g><!--SRC=[bPHDRnen48Rl_0fhZqY9cciEbIf0RQI4HW9nGHoCFIoZ-YlsR5IA-E-rsIMmPRsaN5ZRhsUU6S-CK3m4LemvyP5L2WIXDKy4kc3BvNvg3HnMAxOViFZRRn2KF333DR175iYZAHbhdRrpZtojODgZaT7PH846GoDh13XwaZdjMmKX8StXD-KqpbljigVMI_3JIg_1HmaQWZ9-jJMQcmXb_MxHu4Vbsbe5t7ImptSk2Thv6ZS74rFfV-ueC2Ljiyu3bWOtABYXCPP88QkK69pYknye9PWiOe06g-6SNQuRlCD0r0y_6yzVvjoNG3qF7YJfRyPOuibCBj59TSfVk10jlzpV3rTNqjhh2tSkgIvi7WQTvJYyk_lAYcZheMXZFxBYRAyu1VRgmLbNAKuW5rnLq1FVUphFXIMwIlGpZ1q44TLTxPw8dp7GBTAc0XPzm5VHt88T5Ytd4V9e8crzm8sih3TwggHQQmmXsb_yTpul1LiFctXMURmir7O4txsjN0-Bu-8NBo5UIXmo_R4kGTCYh-TLH_-A3xSp1mAvmZ_7HiY74BRMKzy839GcZfUtpcV4FIt0Xxw-QxGJ8syeKRjwx1xnVxgccxksEz8G19ZOtZOxrgtccFMzHgj1nYcdRixyrCtfkGDGNy8_quFdierLBU927OkwkvhgcmzrGtIPZZOmVeJYBm00]--></g></svg>