<svg xmlns="http://www.w3.org/2000/svg" xmlns:xlink="http://www.w3.org/1999/xlink" contentStyleType="text/css" data-diagram-type="CLASS" height="784px" preserveAspectRatio="none" style="width:673px;height:784px;background:#FFFFFF;" version="1.1" viewBox="0 0 673 784" width="673px" zoomAndPan="magnify"><defs/><g><!--class SubsetCodeList--><a href="" target="_top" title="None" xlink:actuate="onRequest" xlink:href="" xlink:show="new" xlink:title="None" xlink:type="simple"><g class="entity" data-entity="SubsetCodeList" data-source-line="1" data-uid="ent0002" id="entity_SubsetCodeList"><rect fill="#F1F1F1" height="96.8906" rx="2.5" ry="2.5" style="stroke:#181818;stroke-width:0.5;" width="191.1289" x="28.11" y="55.89"/><ellipse cx="65.9576" cy="71.89" fill="#ADD1B2" rx="11" ry="11" style="stroke:#181818;stroke-width:1;"/><path d="M68.9264,77.5306 Q68.3482,77.8275 67.7076,77.9681 Q67.067,78.1244 66.3639,78.1244 Q63.8639,78.1244 62.5357,76.4837 Q61.2232,74.8275 61.2232,71.7025 Q61.2232,68.5775 62.5357,66.9212 Q63.8639,65.265 66.3639,65.265 Q67.067,65.265 67.7076,65.4212 Q68.3639,65.5775 68.9264,65.8744 L68.9264,68.5931 Q68.3014,68.015 67.7076,67.7494 Q67.1139,67.4681 66.4889,67.4681 Q65.1451,67.4681 64.4576,68.5462 Q63.7701,69.6087 63.7701,71.7025 Q63.7701,73.7962 64.4576,74.8744 Q65.1451,75.9369 66.4889,75.9369 Q67.1139,75.9369 67.7076,75.6712 Q68.3014,75.39 68.9264,74.8119 L68.9264,77.5306 Z " fill="#000000"/><text fill="#000000" font-family="sans-serif" font-size="14" lengthAdjust="spacing" textLength="108.3564" x="85.0349" y="76.7367">SubsetCodeList</text><line style="stroke:#181818;stroke-width:0.5;" x1="29.11" x2="218.2389" y1="87.89" y2="87.89"/><text fill="#000000" font-family="sans-serif" font-size="14" lengthAdjust="spacing" textLength="156.4063" x="34.11" y="104.8851">parentCodelist : string</text><text fill="#000000" font-family="sans-serif" font-size="14" lengthAdjust="spacing" textLength="179.1289" x="34.11" y="121.182">subsetShortName : string</text><text fill="#000000" font-family="sans-serif" font-size="14" lengthAdjust="spacing" textLength="138.0244" x="34.11" y="137.4789">subsetLabel : string</text><line style="stroke:#181818;stroke-width:0.5;" x1="29.11" x2="218.2389" y1="144.7806" y2="144.7806"/></g></a><!--class CodeListTerm--><a href="" target="_top" title="None" xlink:actuate="onRequest" xlink:href="" xlink:show="new" xlink:title="None" xlink:type="simple"><g class="entity" data-entity="CodeListTerm" data-source-line="6" data-uid="ent0003" id="entity_CodeListTerm"><rect fill="#F1F1F1" height="80.5938" rx="2.5" ry="2.5" style="stroke:#181818;stroke-width:0.5;" width="138.834" x="54.25" y="392.75"/><ellipse cx="73.7329" cy="408.75" fill="#ADD1B2" rx="11" ry="11" style="stroke:#181818;stroke-width:1;"/><path d="M76.7016,414.3906 Q76.1235,414.6875 75.4829,414.8281 Q74.8422,414.9844 74.1391,414.9844 Q71.6391,414.9844 70.311,413.3438 Q68.9985,411.6875 68.9985,408.5625 Q68.9985,405.4375 70.311,403.7813 Q71.6391,402.125 74.1391,402.125 Q74.8422,402.125 75.4829,402.2813 Q76.1391,402.4375 76.7016,402.7344 L76.7016,405.4531 Q76.0766,404.875 75.4829,404.6094 Q74.8891,404.3281 74.2641,404.3281 Q72.9204,404.3281 72.2329,405.4063 Q71.5454,406.4688 71.5454,408.5625 Q71.5454,410.6563 72.2329,411.7344 Q72.9204,412.7969 74.2641,412.7969 Q74.8891,412.7969 75.4829,412.5313 Q76.0766,412.25 76.7016,411.6719 L76.7016,414.3906 Z " fill="#000000"/><text fill="#000000" font-family="sans-serif" font-size="14" lengthAdjust="spacing" textLength="96.8721" x="88.7291" y="413.5967">CodeListTerm</text><line style="stroke:#181818;stroke-width:0.5;" x1="55.25" x2="192.084" y1="424.75" y2="424.75"/><text fill="#000000" font-family="sans-serif" font-size="14" lengthAdjust="spacing" textLength="100.3174" x="60.25" y="441.7451">termId : string</text><text fill="#000000" font-family="sans-serif" font-size="14" lengthAdjust="spacing" textLength="126.834" x="60.25" y="458.042">termValue : string</text><line style="stroke:#181818;stroke-width:0.5;" x1="55.25" x2="192.084" y1="465.3438" y2="465.3438"/></g></a><!--class SDTMVariable--><a href="" target="_top" title="None" xlink:actuate="onRequest" xlink:href="" xlink:show="new" xlink:title="None" xlink:type="simple"><g class="entity" data-entity="SDTMVariable" data-source-line="11" data-uid="ent0005" id="entity_SDTMVariable"><rect fill="#F1F1F1" height="308.75" rx="2.5" ry="2.5" style="stroke:#181818;stroke-width:0.5;" width="297.5508" x="231.9" y="278.67"/><ellipse cx="327.3912" cy="294.67" fill="#ADD1B2" rx="11" ry="11" style="stroke:#181818;stroke-width:1;"/><path d="M330.36,300.3106 Q329.7818,300.6075 329.1412,300.7481 Q328.5006,300.9044 327.7975,300.9044 Q325.2975,300.9044 323.9693,299.2638 Q322.6568,297.6075 322.6568,294.4825 Q322.6568,291.3575 323.9693,289.7013 Q325.2975,288.045 327.7975,288.045 Q328.5006,288.045 329.1412,288.2013 Q329.7975,288.3575 330.36,288.6544 L330.36,291.3731 Q329.735,290.795 329.1412,290.5294 Q328.5475,290.2481 327.9225,290.2481 Q326.5787,290.2481 325.8912,291.3263 Q325.2037,292.3888 325.2037,294.4825 Q325.2037,296.5763 325.8912,297.6544 Q326.5787,298.7169 327.9225,298.7169 Q328.5475,298.7169 329.1412,298.4513 Q329.735,298.17 330.36,297.5919 L330.36,300.3106 Z " fill="#000000"/><text fill="#000000" font-family="sans-serif" font-size="14" lengthAdjust="spacing" textLength="98.0684" x="347.8912" y="299.5167">SDTMVariable</text><line style="stroke:#181818;stroke-width:0.5;" x1="232.9" x2="528.4508" y1="310.67" y2="310.67"/><text fill="#000000" font-family="sans-serif" font-size="14" lengthAdjust="spacing" textLength="93.5088" x="237.9" y="327.6651">name : string</text><text fill="#000000" font-family="sans-serif" font-size="14" lengthAdjust="spacing" textLength="214.2178" x="237.9" y="343.962">dataElementConceptId : string</text><text fill="#000000" font-family="sans-serif" font-size="14" lengthAdjust="spacing" textLength="172.6211" x="237.9" y="360.2589">isNonStandard : boolean</text><text fill="#000000" font-family="sans-serif" font-size="14" lengthAdjust="spacing" textLength="156.6592" x="237.9" y="376.5557">subsetCodelist : string</text><text fill="#000000" font-family="sans-serif" font-size="14" lengthAdjust="spacing" textLength="161.1504" x="237.9" y="392.8526">valueList : string  [0..*]</text><text fill="#000000" font-family="sans-serif" font-size="14" lengthAdjust="spacing" textLength="111.4668" x="237.9" y="409.1495">role : RoleEnum</text><text fill="#000000" font-family="sans-serif" font-size="14" lengthAdjust="spacing" textLength="285.5508" x="237.9" y="425.4464">dataType : SDTMVariableDataTypeEnum</text><text fill="#000000" font-family="sans-serif" font-size="14" lengthAdjust="spacing" textLength="108.3633" x="237.9" y="441.7432">length : integer</text><text fill="#000000" font-family="sans-serif" font-size="14" lengthAdjust="spacing" textLength="100.7617" x="237.9" y="458.0401">format : string</text><text fill="#000000" font-family="sans-serif" font-size="14" lengthAdjust="spacing" textLength="176.2578" x="237.9" y="474.337">significantDigits : integer</text><text fill="#000000" font-family="sans-serif" font-size="14" lengthAdjust="spacing" textLength="204.0117" x="237.9" y="490.6339">mandatoryVariable : boolean</text><text fill="#000000" font-family="sans-serif" font-size="14" lengthAdjust="spacing" textLength="185.7734" x="237.9" y="506.9307">mandatoryValue : boolean</text><text fill="#000000" font-family="sans-serif" font-size="14" lengthAdjust="spacing" textLength="204.6953" x="237.9" y="523.2276">originType : OriginTypeEnum</text><text fill="#000000" font-family="sans-serif" font-size="14" lengthAdjust="spacing" textLength="232.8047" x="237.9" y="539.5245">originSource : OriginSourceEnum</text><text fill="#000000" font-family="sans-serif" font-size="14" lengthAdjust="spacing" textLength="218.9482" x="237.9" y="555.8214">comparator : ComparatorEnum</text><text fill="#000000" font-family="sans-serif" font-size="14" lengthAdjust="spacing" textLength="141.2783" x="237.9" y="572.1182">vlmTarget : boolean</text><line style="stroke:#181818;stroke-width:0.5;" x1="232.9" x2="528.4508" y1="579.42" y2="579.42"/></g></a><!--class RelationShip--><a href="" target="_top" title="None" xlink:actuate="onRequest" xlink:href="" xlink:show="new" xlink:title="None" xlink:type="simple"><g class="entity" data-entity="RelationShip" data-source-line="29" data-uid="ent0006" id="entity_RelationShip"><rect fill="#F1F1F1" height="113.1875" rx="2.5" ry="2.5" style="stroke:#181818;stroke-width:0.5;" width="271.3418" x="7" y="664.42"/><ellipse cx="94.3394" cy="680.42" fill="#ADD1B2" rx="11" ry="11" style="stroke:#181818;stroke-width:1;"/><path d="M97.3081,686.0606 Q96.73,686.3575 96.0894,686.4981 Q95.4487,686.6544 94.7456,686.6544 Q92.2456,686.6544 90.9175,685.0138 Q89.605,683.3575 89.605,680.2325 Q89.605,677.1075 90.9175,675.4513 Q92.2456,673.795 94.7456,673.795 Q95.4487,673.795 96.0894,673.9513 Q96.7456,674.1075 97.3081,674.4044 L97.3081,677.1231 Q96.6831,676.545 96.0894,676.2794 Q95.4956,675.9981 94.8706,675.9981 Q93.5269,675.9981 92.8394,677.0763 Q92.1519,678.1388 92.1519,680.2325 Q92.1519,682.3263 92.8394,683.4044 Q93.5269,684.4669 94.8706,684.4669 Q95.4956,684.4669 96.0894,684.2013 Q96.6831,683.92 97.3081,683.3419 L97.3081,686.0606 Z " fill="#000000"/><text fill="#000000" font-family="sans-serif" font-size="14" lengthAdjust="spacing" textLength="88.1631" x="114.8394" y="685.2667">RelationShip</text><line style="stroke:#181818;stroke-width:0.5;" x1="8" x2="277.3418" y1="696.42" y2="696.42"/><text fill="#000000" font-family="sans-serif" font-size="14" lengthAdjust="spacing" textLength="104.5488" x="13" y="713.4151">subject : string</text><text fill="#000000" font-family="sans-serif" font-size="14" lengthAdjust="spacing" textLength="245.6904" x="13" y="729.712">linkingPhrase : LinkingPhraseEnum</text><text fill="#000000" font-family="sans-serif" font-size="14" lengthAdjust="spacing" textLength="259.3418" x="13" y="746.0089">predicateTerm : PredicateTermEnum</text><text fill="#000000" font-family="sans-serif" font-size="14" lengthAdjust="spacing" textLength="96.9473" x="13" y="762.3057">object : string</text><line style="stroke:#181818;stroke-width:0.5;" x1="8" x2="277.3418" y1="769.6075" y2="769.6075"/></g></a><!--class AssignedTerm--><a href="" target="_top" title="None" xlink:actuate="onRequest" xlink:href="" xlink:show="new" xlink:title="None" xlink:type="simple"><g class="entity" data-entity="AssignedTerm" data-source-line="35" data-uid="ent0007" id="entity_AssignedTerm"><rect fill="#F1F1F1" height="80.5938" rx="2.5" ry="2.5" style="stroke:#181818;stroke-width:0.5;" width="134.6436" x="313.35" y="680.72"/><ellipse cx="329.5967" cy="696.72" fill="#ADD1B2" rx="11" ry="11" style="stroke:#181818;stroke-width:1;"/><path d="M332.5655,702.3606 Q331.9874,702.6575 331.3467,702.7981 Q330.7061,702.9544 330.003,702.9544 Q327.503,702.9544 326.1749,701.3138 Q324.8624,699.6575 324.8624,696.5325 Q324.8624,693.4075 326.1749,691.7513 Q327.503,690.095 330.003,690.095 Q330.7061,690.095 331.3467,690.2513 Q332.003,690.4075 332.5655,690.7044 L332.5655,693.4231 Q331.9405,692.845 331.3467,692.5794 Q330.753,692.2981 330.128,692.2981 Q328.7842,692.2981 328.0967,693.3763 Q327.4092,694.4388 327.4092,696.5325 Q327.4092,698.6263 328.0967,699.7044 Q328.7842,700.7669 330.128,700.7669 Q330.753,700.7669 331.3467,700.5013 Q331.9405,700.22 332.5655,699.6419 L332.5655,702.3606 Z " fill="#000000"/><text fill="#000000" font-family="sans-serif" font-size="14" lengthAdjust="spacing" textLength="99.873" x="343.8738" y="701.5667">AssignedTerm</text><line style="stroke:#181818;stroke-width:0.5;" x1="314.35" x2="446.9936" y1="712.72" y2="712.72"/><text fill="#000000" font-family="sans-serif" font-size="14" lengthAdjust="spacing" textLength="122.6436" x="319.35" y="729.7151">conceptId : string</text><text fill="#000000" font-family="sans-serif" font-size="14" lengthAdjust="spacing" textLength="92.0459" x="319.35" y="746.012">value : string</text><line style="stroke:#181818;stroke-width:0.5;" x1="314.35" x2="446.9936" y1="753.3138" y2="753.3138"/></g></a><!--class CodeList--><a href="" target="_top" title="None" xlink:actuate="onRequest" xlink:href="" xlink:show="new" xlink:title="None" xlink:type="simple"><g class="entity" data-entity="CodeList" data-source-line="39" data-uid="ent0008" id="entity_CodeList"><rect fill="#F1F1F1" height="96.8906" rx="2.5" ry="2.5" style="stroke:#181818;stroke-width:0.5;" width="183.835" x="482.75" y="672.57"/><ellipse cx="540.2607" cy="688.57" fill="#ADD1B2" rx="11" ry="11" style="stroke:#181818;stroke-width:1;"/><path d="M543.2295,694.2106 Q542.6514,694.5075 542.0107,694.6481 Q541.3701,694.8044 540.667,694.8044 Q538.167,694.8044 536.8389,693.1638 Q535.5264,691.5075 535.5264,688.3825 Q535.5264,685.2575 536.8389,683.6013 Q538.167,681.945 540.667,681.945 Q541.3701,681.945 542.0107,682.1013 Q542.667,682.2575 543.2295,682.5544 L543.2295,685.2731 Q542.6045,684.695 542.0107,684.4294 Q541.417,684.1481 540.792,684.1481 Q539.4482,684.1481 538.7607,685.2263 Q538.0732,686.2888 538.0732,688.3825 Q538.0732,690.4763 538.7607,691.5544 Q539.4482,692.6169 540.792,692.6169 Q541.417,692.6169 542.0107,692.3513 Q542.6045,692.07 543.2295,691.4919 L543.2295,694.2106 Z " fill="#000000"/><text fill="#000000" font-family="sans-serif" font-size="14" lengthAdjust="spacing" textLength="60.3135" x="560.7607" y="693.4167">CodeList</text><line style="stroke:#181818;stroke-width:0.5;" x1="483.75" x2="665.585" y1="704.57" y2="704.57"/><text fill="#000000" font-family="sans-serif" font-size="14" lengthAdjust="spacing" textLength="122.6436" x="488.75" y="721.5651">conceptId : string</text><text fill="#000000" font-family="sans-serif" font-size="14" lengthAdjust="spacing" textLength="60.3066" x="488.75" y="737.862">href : uri</text><text fill="#000000" font-family="sans-serif" font-size="14" lengthAdjust="spacing" textLength="171.835" x="488.75" y="754.1589">submissionValue : string</text><line style="stroke:#181818;stroke-width:0.5;" x1="483.75" x2="665.585" y1="761.4606" y2="761.4606"/></g></a><!--class SDTMGroup--><a href="" target="_top" title="None" xlink:actuate="onRequest" xlink:href="" xlink:show="new" xlink:title="None" xlink:type="simple"><g class="entity" data-entity="SDTMGroup" data-source-line="44" data-uid="ent0009" id="entity_SDTMGroup"><rect fill="#F1F1F1" height="194.6719" rx="2.5" ry="2.5" style="stroke:#181818;stroke-width:0.5;" width="252.7754" x="254.28" y="7"/><ellipse cx="334.8039" cy="23" fill="#ADD1B2" rx="11" ry="11" style="stroke:#181818;stroke-width:1;"/><path d="M337.7727,28.6406 Q337.1946,28.9375 336.5539,29.0781 Q335.9133,29.2344 335.2102,29.2344 Q332.7102,29.2344 331.3821,27.5938 Q330.0696,25.9375 330.0696,22.8125 Q330.0696,19.6875 331.3821,18.0313 Q332.7102,16.375 335.2102,16.375 Q335.9133,16.375 336.5539,16.5313 Q337.2102,16.6875 337.7727,16.9844 L337.7727,19.7031 Q337.1477,19.125 336.5539,18.8594 Q335.9602,18.5781 335.3352,18.5781 Q333.9914,18.5781 333.3039,19.6563 Q332.6164,20.7188 332.6164,22.8125 Q332.6164,24.9063 333.3039,25.9844 Q333.9914,27.0469 335.3352,27.0469 Q335.9602,27.0469 336.5539,26.7813 Q337.1477,26.5 337.7727,25.9219 L337.7727,28.6406 Z " fill="#000000"/><text fill="#000000" font-family="sans-serif" font-size="14" lengthAdjust="spacing" textLength="83.2275" x="355.3039" y="27.8467">SDTMGroup</text><line style="stroke:#181818;stroke-width:0.5;" x1="255.28" x2="506.0554" y1="39" y2="39"/><text fill="#000000" font-family="sans-serif" font-size="14" lengthAdjust="spacing" textLength="137.9971" x="260.28" y="55.9951">packageDate : date</text><text fill="#000000" font-family="sans-serif" font-size="14" lengthAdjust="spacing" textLength="240.7754" x="260.28" y="72.292">packageType : PackageTypeEnum</text><text fill="#000000" font-family="sans-serif" font-size="14" lengthAdjust="spacing" textLength="216.8291" x="260.28" y="88.5889">datasetSpecializationId : string</text><text fill="#000000" font-family="sans-serif" font-size="14" lengthAdjust="spacing" textLength="106.2373" x="260.28" y="104.8857">domain : string</text><text fill="#000000" font-family="sans-serif" font-size="14" lengthAdjust="spacing" textLength="131.0859" x="260.28" y="121.1826">shortName : string</text><text fill="#000000" font-family="sans-serif" font-size="14" lengthAdjust="spacing" textLength="100.6045" x="260.28" y="137.4795">source : string</text><text fill="#000000" font-family="sans-serif" font-size="14" lengthAdjust="spacing" textLength="188.6582" x="260.28" y="153.7764">sdtmigStartVersion : string</text><text fill="#000000" font-family="sans-serif" font-size="14" lengthAdjust="spacing" textLength="181.0635" x="260.28" y="170.0732">sdtmigEndVersion : string</text><text fill="#000000" font-family="sans-serif" font-size="14" lengthAdjust="spacing" textLength="201.2568" x="260.28" y="186.3701">biomedicalConceptId : string</text><line style="stroke:#181818;stroke-width:0.5;" x1="255.28" x2="506.0554" y1="193.6719" y2="193.6719"/></g></a><!--link SubsetCodeList to CodeListTerm--><g class="link" data-entity-1="SubsetCodeList" data-entity-2="CodeListTerm" data-source-line="10" data-uid="lnk4" id="link_SubsetCodeList_CodeListTerm"><path codeLine="10" d="M123.67,165.19 C123.67,229.89 123.67,326.06 123.67,386.29" fill="none" id="SubsetCodeList-CodeListTerm" style="stroke:#181818;stroke-width:1;"/><polygon fill="#181818" points="123.67,153.19,119.67,159.19,123.67,165.19,127.67,159.19,123.67,153.19" style="stroke:#181818;stroke-width:1;"/><polygon fill="#181818" points="123.67,392.29,127.67,383.29,123.67,387.29,119.67,383.29,123.67,392.29" style="stroke:#181818;stroke-width:1;"/><text fill="#000000" font-family="sans-serif" font-size="13" lengthAdjust="spacing" textLength="84.3921" x="124.67" y="244.7369">codelistTerm</text><text fill="#000000" font-family="sans-serif" font-size="13" lengthAdjust="spacing" textLength="23.0356" x="98.8405" y="381.6765">1..*</text></g><!--link SDTMVariable to RelationShip--><g class="link" data-entity-1="SDTMVariable" data-entity-2="RelationShip" data-source-line="55" data-uid="lnk10" id="link_SDTMVariable_RelationShip"><path codeLine="55" d="M244.9358,597.1353 C222.2758,624.3753 211.5572,637.2374 193.0972,659.4274" fill="none" id="SDTMVariable-RelationShip" style="stroke:#181818;stroke-width:1;"/><polygon fill="#181818" points="252.61,587.91,245.6978,589.9646,244.9358,597.1353,251.848,595.0807,252.61,587.91" style="stroke:#181818;stroke-width:1;"/><polygon fill="#181818" points="189.26,664.04,198.0909,659.6793,192.4577,660.1962,191.9408,654.563,189.26,664.04" style="stroke:#181818;stroke-width:1;"/><text fill="#000000" font-family="sans-serif" font-size="13" lengthAdjust="spacing" textLength="76.6987" x="227.67" y="630.4869">relationship</text><text fill="#000000" font-family="sans-serif" font-size="13" lengthAdjust="spacing" textLength="24.8066" x="169.5247" y="653.2572">0..1</text></g><!--link SDTMVariable to AssignedTerm--><g class="link" data-entity-1="SDTMVariable" data-entity-2="AssignedTerm" data-source-line="56" data-uid="lnk11" id="link_SDTMVariable_AssignedTerm"><path codeLine="56" d="M380.67,599.91 C380.67,634.29 380.67,649.81 380.67,674.49" fill="none" id="SDTMVariable-AssignedTerm" style="stroke:#181818;stroke-width:1;"/><polygon fill="#181818" points="380.67,587.91,376.67,593.91,380.67,599.91,384.67,593.91,380.67,587.91" style="stroke:#181818;stroke-width:1;"/><polygon fill="#181818" points="380.67,680.49,384.67,671.49,380.67,675.49,376.67,671.49,380.67,680.49" style="stroke:#181818;stroke-width:1;"/><text fill="#000000" font-family="sans-serif" font-size="13" lengthAdjust="spacing" textLength="91.8125" x="381.67" y="630.4869">assignedTerm</text><text fill="#000000" font-family="sans-serif" font-size="13" lengthAdjust="spacing" textLength="24.8066" x="354.749" y="669.6134">0..1</text></g><!--link SDTMVariable to CodeList--><g class="link" data-entity-1="SDTMVariable" data-entity-2="CodeList" data-source-line="57" data-uid="lnk12" id="link_SDTMVariable_CodeList"><path codeLine="57" d="M491.7876,597.84 C512.5976,628.51 522.8412,643.615 538.8812,667.255" fill="none" id="SDTMVariable-CodeList" style="stroke:#181818;stroke-width:1;"/><polygon fill="#181818" points="485.05,587.91,485.1088,595.1209,491.7876,597.84,491.7288,590.6291,485.05,587.91" style="stroke:#181818;stroke-width:1;"/><polygon fill="#181818" points="542.25,672.22,540.5068,662.5266,539.4427,668.0825,533.8868,667.0184,542.25,672.22" style="stroke:#181818;stroke-width:1;"/><text fill="#000000" font-family="sans-serif" font-size="13" lengthAdjust="spacing" textLength="50.4448" x="512.67" y="630.4869">codelist</text><text fill="#000000" font-family="sans-serif" font-size="13" lengthAdjust="spacing" textLength="24.8066" x="512.0605" y="661.3797">0..1</text></g><!--link SDTMGroup to SDTMVariable--><g class="link" data-entity-1="SDTMGroup" data-entity-2="SDTMVariable" data-source-line="58" data-uid="lnk13" id="link_SDTMGroup_SDTMVariable"><path codeLine="58" d="M380.67,214.03 C380.67,238.03 380.67,246.33 380.67,272.31" fill="none" id="SDTMGroup-SDTMVariable" style="stroke:#181818;stroke-width:1;"/><polygon fill="#181818" points="380.67,202.03,376.67,208.03,380.67,214.03,384.67,208.03,380.67,202.03" style="stroke:#181818;stroke-width:1;"/><polygon fill="#181818" points="380.67,278.31,384.67,269.31,380.67,273.31,376.67,269.31,380.67,278.31" style="stroke:#181818;stroke-width:1;"/><text fill="#000000" font-family="sans-serif" font-size="13" lengthAdjust="spacing" textLength="59.2173" x="381.67" y="244.7369">variables</text><text fill="#000000" font-family="sans-serif" font-size="13" lengthAdjust="spacing" textLength="23.0356" x="357.1136" y="267.5219">1..*</text></g><!--SRC=[fLLDR-8m4BttLrWvLcgrlVQmqggWLINQeeAu80x67i9i_H7P3b8NyTzt708au2I7pIMQyVDyvRs9KDnxbitAjOVmOYLCq8UCBPVxTslWi5gn_HsZPxz1KFB02kx0L415GFRCV71eSiPQA5-5cssj2-zSGpzimjUWcf33dJXMTQfd3axtr1Je-5Ls9Ocd2wvAQAUuQVd-uU4dovuU7- -pwypFB1DrnvNZLDziD7zRS8TyhQ2dFjCp0ia37olGrL2DW29qTuAUuiy2DvAx25fRgu2Rv527lj0kJcJI1Yn_KFEh5inH1a9yqcjiIfqeVlvTH4Hp5AFQdRYXmEHXItWq0N9mLySRwpJlPXNc1ZSek0aZp37upZWwpYXOztqggNDQ3UIH8ccOTPJGrBr-d8r4XqVap9PENB17Cu4MLfEYOW64VJaR2UHEwJbtEOHMZMUfV8BY0OaUMonwg4Za-0EYSy8ApHTvfrl7VQn-qhGJHHKE97sF054MX9ysxTHmRhAV6_Zbu-S5EQ1rCIIItQtKhxR9_qJVEjZGMUdmLdKQgGLh5fq5H8tyThOiUlUh-E9vb52C8UEBfG0r5QSNgqEVSGyN890h_5infBivQJL7qwc-mMr-udpwL0QDEMql5nRWug3waMCZ1t1hjBgYcqfkphZYM_lvkE1fnprbrtgX1UzgXu-Etgjjfj9LtdJqNhrGiF5BgQ_Kp6ZzXjgXwCwkDdps3m00]--></g></svg>